<mxfile host="app.diagrams.net" modified="2022-07-04T15:38:54.583Z" agent="5.0 (Windows)" etag="eB6oUAFCIrn0L2GXt6fH" version="20.0.1" type="github" pages="13">
  <diagram id="7lfRlck1Q1e1y9GRNaaV" name="1-4G">
    <mxGraphModel dx="1296" dy="669" grid="0" gridSize="10" guides="1" tooltips="1" connect="1" arrows="1" fold="1" page="1" pageScale="1" pageWidth="850" pageHeight="1100" math="0" shadow="0">
      <root>
        <mxCell id="0" />
        <mxCell id="1" parent="0" />
        <mxCell id="j4P1f7f7aAY2IZCiiNwr-49" value="" style="rounded=1;whiteSpace=wrap;html=1;fontSize=22;fillColor=none;" vertex="1" parent="1">
          <mxGeometry x="100" y="420" width="650" height="320" as="geometry" />
        </mxCell>
        <mxCell id="j4P1f7f7aAY2IZCiiNwr-2" value="" style="outlineConnect=0;dashed=0;verticalLabelPosition=bottom;verticalAlign=top;align=center;html=1;shape=mxgraph.aws3.customer_gateway;fillColor=#F58536;gradientColor=none;" vertex="1" parent="1">
          <mxGeometry x="232" y="538" width="40" height="40" as="geometry" />
        </mxCell>
        <mxCell id="j4P1f7f7aAY2IZCiiNwr-34" value="" style="edgeStyle=orthogonalEdgeStyle;rounded=0;orthogonalLoop=1;jettySize=auto;html=1;endArrow=none;endFill=0;" edge="1" parent="1" source="j4P1f7f7aAY2IZCiiNwr-3" target="j4P1f7f7aAY2IZCiiNwr-26">
          <mxGeometry relative="1" as="geometry" />
        </mxCell>
        <mxCell id="j4P1f7f7aAY2IZCiiNwr-3" value="" style="sketch=0;points=[[0.015,0.015,0],[0.985,0.015,0],[0.985,0.985,0],[0.015,0.985,0],[0.25,0,0],[0.5,0,0],[0.75,0,0],[1,0.25,0],[1,0.5,0],[1,0.75,0],[0.75,1,0],[0.5,1,0],[0.25,1,0],[0,0.75,0],[0,0.5,0],[0,0.25,0]];verticalLabelPosition=bottom;html=1;verticalAlign=top;aspect=fixed;align=center;pointerEvents=1;shape=mxgraph.cisco19.rect;prIcon=secure_catalyst_switch_subdued;fillColor=#FAFAFA;strokeColor=#6696AB;" vertex="1" parent="1">
          <mxGeometry x="630" y="522" width="70" height="71" as="geometry" />
        </mxCell>
        <mxCell id="j4P1f7f7aAY2IZCiiNwr-4" value="" style="sketch=0;aspect=fixed;html=1;points=[];align=center;image;fontSize=12;image=img/lib/mscae/Virtual_WANs.svg;" vertex="1" parent="1">
          <mxGeometry x="630" y="340" width="70" height="70" as="geometry" />
        </mxCell>
        <mxCell id="j4P1f7f7aAY2IZCiiNwr-5" value="" style="shape=image;html=1;verticalAlign=top;verticalLabelPosition=bottom;labelBackgroundColor=#ffffff;imageAspect=0;aspect=fixed;image=https://cdn4.iconfinder.com/data/icons/vecico-connectivity/288/radio-128.png" vertex="1" parent="1">
          <mxGeometry x="112" y="519" width="38" height="38" as="geometry" />
        </mxCell>
        <mxCell id="j4P1f7f7aAY2IZCiiNwr-6" value="" style="verticalLabelPosition=bottom;html=1;verticalAlign=top;align=center;strokeColor=none;fillColor=#00BEF2;shape=mxgraph.azure.mobile;pointerEvents=1;" vertex="1" parent="1">
          <mxGeometry x="20" y="560" width="35" height="50" as="geometry" />
        </mxCell>
        <mxCell id="j4P1f7f7aAY2IZCiiNwr-7" value="" style="sketch=0;html=1;aspect=fixed;strokeColor=none;shadow=0;align=center;verticalAlign=top;fillColor=#3B8DF1;shape=mxgraph.gcp2.phone_android" vertex="1" parent="1">
          <mxGeometry x="29.1" y="489" width="16.8" height="30" as="geometry" />
        </mxCell>
        <mxCell id="j4P1f7f7aAY2IZCiiNwr-8" value="" style="endArrow=none;dashed=1;html=1;rounded=0;" edge="1" parent="1">
          <mxGeometry width="50" height="50" relative="1" as="geometry">
            <mxPoint x="80" y="670" as="sourcePoint" />
            <mxPoint x="80" y="420" as="targetPoint" />
          </mxGeometry>
        </mxCell>
        <mxCell id="j4P1f7f7aAY2IZCiiNwr-12" value="" style="shape=image;html=1;verticalAlign=top;verticalLabelPosition=bottom;labelBackgroundColor=#ffffff;imageAspect=0;aspect=fixed;image=https://cdn4.iconfinder.com/data/icons/vecico-connectivity/288/radio-128.png" vertex="1" parent="1">
          <mxGeometry x="170" y="590" width="38" height="38" as="geometry" />
        </mxCell>
        <mxCell id="j4P1f7f7aAY2IZCiiNwr-13" value="" style="shape=image;html=1;verticalAlign=top;verticalLabelPosition=bottom;labelBackgroundColor=#ffffff;imageAspect=0;aspect=fixed;image=https://cdn4.iconfinder.com/data/icons/vecico-connectivity/288/radio-128.png" vertex="1" parent="1">
          <mxGeometry x="188" y="451" width="38" height="38" as="geometry" />
        </mxCell>
        <mxCell id="j4P1f7f7aAY2IZCiiNwr-14" value="" style="endArrow=none;html=1;rounded=0;" edge="1" parent="1">
          <mxGeometry width="50" height="50" relative="1" as="geometry">
            <mxPoint x="138" y="559" as="sourcePoint" />
            <mxPoint x="230" y="559" as="targetPoint" />
          </mxGeometry>
        </mxCell>
        <mxCell id="j4P1f7f7aAY2IZCiiNwr-19" value="" style="endArrow=none;html=1;rounded=0;entryX=0;entryY=0.5;entryDx=0;entryDy=0;entryPerimeter=0;" edge="1" parent="1" target="j4P1f7f7aAY2IZCiiNwr-2">
          <mxGeometry width="50" height="50" relative="1" as="geometry">
            <mxPoint x="208" y="626" as="sourcePoint" />
            <mxPoint x="258" y="576" as="targetPoint" />
          </mxGeometry>
        </mxCell>
        <mxCell id="j4P1f7f7aAY2IZCiiNwr-21" value="" style="endArrow=none;html=1;rounded=0;exitX=0;exitY=0.5;exitDx=0;exitDy=0;exitPerimeter=0;" edge="1" parent="1" source="j4P1f7f7aAY2IZCiiNwr-2">
          <mxGeometry width="50" height="50" relative="1" as="geometry">
            <mxPoint x="330" y="570" as="sourcePoint" />
            <mxPoint x="220" y="490" as="targetPoint" />
          </mxGeometry>
        </mxCell>
        <mxCell id="j4P1f7f7aAY2IZCiiNwr-33" value="" style="edgeStyle=orthogonalEdgeStyle;rounded=0;orthogonalLoop=1;jettySize=auto;html=1;endArrow=none;endFill=0;" edge="1" parent="1" source="j4P1f7f7aAY2IZCiiNwr-22" target="j4P1f7f7aAY2IZCiiNwr-3">
          <mxGeometry relative="1" as="geometry" />
        </mxCell>
        <mxCell id="j4P1f7f7aAY2IZCiiNwr-22" value="" style="outlineConnect=0;dashed=0;verticalLabelPosition=bottom;verticalAlign=top;align=center;html=1;shape=mxgraph.aws3.customer_gateway;fillColor=#F58536;gradientColor=none;" vertex="1" parent="1">
          <mxGeometry x="560" y="537" width="40" height="40" as="geometry" />
        </mxCell>
        <mxCell id="j4P1f7f7aAY2IZCiiNwr-23" value="" style="outlineConnect=0;dashed=0;verticalLabelPosition=bottom;verticalAlign=top;align=center;html=1;shape=mxgraph.aws3.customer_gateway;fillColor=#F58536;gradientColor=none;" vertex="1" parent="1">
          <mxGeometry x="390" y="538" width="40" height="40" as="geometry" />
        </mxCell>
        <mxCell id="j4P1f7f7aAY2IZCiiNwr-24" value="" style="sketch=0;points=[[0.015,0.015,0],[0.985,0.015,0],[0.985,0.985,0],[0.015,0.985,0],[0.25,0,0],[0.5,0,0],[0.75,0,0],[1,0.25,0],[1,0.5,0],[1,0.75,0],[0.75,1,0],[0.5,1,0],[0.25,1,0],[0,0.75,0],[0,0.5,0],[0,0.25,0]];verticalLabelPosition=bottom;html=1;verticalAlign=top;aspect=fixed;align=center;pointerEvents=1;shape=mxgraph.cisco19.rect;prIcon=secure_catalyst_switch_subdued;fillColor=#FAFAFA;strokeColor=#6696AB;" vertex="1" parent="1">
          <mxGeometry x="440" y="330" width="50" height="50" as="geometry" />
        </mxCell>
        <mxCell id="j4P1f7f7aAY2IZCiiNwr-25" value="" style="sketch=0;aspect=fixed;html=1;points=[];align=center;image;fontSize=12;image=img/lib/mscae/Virtual_WANs.svg;" vertex="1" parent="1">
          <mxGeometry x="750" y="511" width="70" height="70" as="geometry" />
        </mxCell>
        <mxCell id="j4P1f7f7aAY2IZCiiNwr-26" value="" style="outlineConnect=0;dashed=0;verticalLabelPosition=bottom;verticalAlign=top;align=center;html=1;shape=mxgraph.aws3.customer_gateway;fillColor=#F58536;gradientColor=none;" vertex="1" parent="1">
          <mxGeometry x="739.5799999999999" y="545" width="25.21" height="26" as="geometry" />
        </mxCell>
        <mxCell id="j4P1f7f7aAY2IZCiiNwr-27" value="" style="endArrow=none;html=1;rounded=0;exitX=1;exitY=0.5;exitDx=0;exitDy=0;exitPerimeter=0;" edge="1" parent="1" source="j4P1f7f7aAY2IZCiiNwr-2" target="j4P1f7f7aAY2IZCiiNwr-23">
          <mxGeometry width="50" height="50" relative="1" as="geometry">
            <mxPoint x="272" y="561" as="sourcePoint" />
            <mxPoint x="322" y="511" as="targetPoint" />
          </mxGeometry>
        </mxCell>
        <mxCell id="j4P1f7f7aAY2IZCiiNwr-32" value="" style="endArrow=none;html=1;rounded=0;exitX=1;exitY=0.5;exitDx=0;exitDy=0;exitPerimeter=0;entryX=0;entryY=0.5;entryDx=0;entryDy=0;entryPerimeter=0;" edge="1" parent="1" target="j4P1f7f7aAY2IZCiiNwr-22">
          <mxGeometry width="50" height="50" relative="1" as="geometry">
            <mxPoint x="430" y="557" as="sourcePoint" />
            <mxPoint x="548" y="557" as="targetPoint" />
          </mxGeometry>
        </mxCell>
        <mxCell id="j4P1f7f7aAY2IZCiiNwr-35" value="Transport" style="rounded=1;whiteSpace=wrap;html=1;fontSize=22;" vertex="1" parent="1">
          <mxGeometry x="345" y="650" width="130" height="30" as="geometry" />
        </mxCell>
        <mxCell id="j4P1f7f7aAY2IZCiiNwr-36" value="Packet Core" style="rounded=1;whiteSpace=wrap;html=1;fontSize=20;" vertex="1" parent="1">
          <mxGeometry x="609.58" y="650" width="130" height="30" as="geometry" />
        </mxCell>
        <mxCell id="j4P1f7f7aAY2IZCiiNwr-37" value="&lt;font style=&quot;font-size: 22px;&quot;&gt;RAN&lt;/font&gt;" style="rounded=1;whiteSpace=wrap;html=1;" vertex="1" parent="1">
          <mxGeometry x="130" y="650" width="90" height="30" as="geometry" />
        </mxCell>
        <mxCell id="j4P1f7f7aAY2IZCiiNwr-39" value="" style="endArrow=none;html=1;rounded=0;" edge="1" parent="1">
          <mxGeometry width="50" height="50" relative="1" as="geometry">
            <mxPoint x="110" y="664" as="sourcePoint" />
            <mxPoint x="130" y="664.41" as="targetPoint" />
          </mxGeometry>
        </mxCell>
        <mxCell id="j4P1f7f7aAY2IZCiiNwr-40" value="" style="endArrow=none;html=1;rounded=0;" edge="1" parent="1">
          <mxGeometry width="50" height="50" relative="1" as="geometry">
            <mxPoint x="220" y="664.71" as="sourcePoint" />
            <mxPoint x="240" y="665" as="targetPoint" />
          </mxGeometry>
        </mxCell>
        <mxCell id="j4P1f7f7aAY2IZCiiNwr-41" value="" style="endArrow=none;html=1;rounded=0;" edge="1" parent="1">
          <mxGeometry width="50" height="50" relative="1" as="geometry">
            <mxPoint x="250" y="687.35" as="sourcePoint" />
            <mxPoint x="250" y="642.64" as="targetPoint" />
          </mxGeometry>
        </mxCell>
        <mxCell id="j4P1f7f7aAY2IZCiiNwr-42" value="" style="endArrow=none;html=1;rounded=0;entryX=0;entryY=0.5;entryDx=0;entryDy=0;" edge="1" parent="1" target="j4P1f7f7aAY2IZCiiNwr-35">
          <mxGeometry width="50" height="50" relative="1" as="geometry">
            <mxPoint x="260" y="665" as="sourcePoint" />
            <mxPoint x="250" y="675" as="targetPoint" />
          </mxGeometry>
        </mxCell>
        <mxCell id="j4P1f7f7aAY2IZCiiNwr-43" value="" style="endArrow=none;html=1;rounded=0;" edge="1" parent="1">
          <mxGeometry width="50" height="50" relative="1" as="geometry">
            <mxPoint x="475" y="664.71" as="sourcePoint" />
            <mxPoint x="570" y="665" as="targetPoint" />
          </mxGeometry>
        </mxCell>
        <mxCell id="j4P1f7f7aAY2IZCiiNwr-44" value="" style="endArrow=none;html=1;rounded=0;" edge="1" parent="1">
          <mxGeometry width="50" height="50" relative="1" as="geometry">
            <mxPoint x="579.83" y="687.35" as="sourcePoint" />
            <mxPoint x="579.83" y="642.64" as="targetPoint" />
          </mxGeometry>
        </mxCell>
        <mxCell id="j4P1f7f7aAY2IZCiiNwr-45" value="" style="endArrow=none;html=1;rounded=0;entryX=0;entryY=0.5;entryDx=0;entryDy=0;" edge="1" parent="1">
          <mxGeometry width="50" height="50" relative="1" as="geometry">
            <mxPoint x="590" y="665" as="sourcePoint" />
            <mxPoint x="609.58" y="664.71" as="targetPoint" />
          </mxGeometry>
        </mxCell>
        <mxCell id="j4P1f7f7aAY2IZCiiNwr-46" value="Backhaul" style="text;whiteSpace=wrap;html=1;fontSize=22;" vertex="1" parent="1">
          <mxGeometry x="280" y="570" width="120" height="40" as="geometry" />
        </mxCell>
        <mxCell id="j4P1f7f7aAY2IZCiiNwr-47" value="Backhaul" style="text;whiteSpace=wrap;html=1;fontSize=22;" vertex="1" parent="1">
          <mxGeometry x="450" y="571" width="120" height="40" as="geometry" />
        </mxCell>
        <mxCell id="j4P1f7f7aAY2IZCiiNwr-48" value="Internet" style="text;whiteSpace=wrap;html=1;fontSize=22;" vertex="1" parent="1">
          <mxGeometry x="750" y="577" width="120" height="40" as="geometry" />
        </mxCell>
        <mxCell id="j4P1f7f7aAY2IZCiiNwr-50" value="eNB" style="text;whiteSpace=wrap;html=1;fontSize=22;" vertex="1" parent="1">
          <mxGeometry x="118" y="471" width="120" height="40" as="geometry" />
        </mxCell>
      </root>
    </mxGraphModel>
  </diagram>
  <diagram id="Swc-7TrxH6IiicUjeatK" name="2-4g-to-5g">
    <mxGraphModel dx="1296" dy="669" grid="0" gridSize="10" guides="1" tooltips="1" connect="1" arrows="1" fold="1" page="1" pageScale="1" pageWidth="850" pageHeight="1100" math="0" shadow="0">
      <root>
        <mxCell id="0" />
        <mxCell id="1" parent="0" />
        <mxCell id="UAJ1_5hRjYDi_ukZU9g5-32" value="" style="rounded=1;whiteSpace=wrap;html=1;fontSize=22;fillColor=none;" vertex="1" parent="1">
          <mxGeometry x="100" y="420" width="650" height="320" as="geometry" />
        </mxCell>
        <mxCell id="VaFtsXz-8qVugDbF5ZBs-1" value="" style="fontColor=#0066CC;verticalAlign=top;verticalLabelPosition=bottom;labelPosition=center;align=center;html=1;outlineConnect=0;fillColor=#CCCCCC;strokeColor=#6881B3;gradientColor=none;gradientDirection=north;strokeWidth=2;shape=mxgraph.networks.server;fontSize=22;" vertex="1" parent="1">
          <mxGeometry x="376" y="430" width="70" height="80" as="geometry" />
        </mxCell>
        <mxCell id="hvOMG3m1oWMJdlIDi8Wk-1" value="MEC" style="text;whiteSpace=wrap;html=1;fontSize=22;" vertex="1" parent="1">
          <mxGeometry x="322" y="440" width="120" height="40" as="geometry" />
        </mxCell>
        <mxCell id="UAJ1_5hRjYDi_ukZU9g5-1" value="" style="outlineConnect=0;dashed=0;verticalLabelPosition=bottom;verticalAlign=top;align=center;html=1;shape=mxgraph.aws3.customer_gateway;fillColor=#F58536;gradientColor=none;" vertex="1" parent="1">
          <mxGeometry x="232" y="538" width="40" height="40" as="geometry" />
        </mxCell>
        <mxCell id="UAJ1_5hRjYDi_ukZU9g5-2" value="" style="edgeStyle=orthogonalEdgeStyle;rounded=0;orthogonalLoop=1;jettySize=auto;html=1;endArrow=none;endFill=0;" edge="1" parent="1" source="UAJ1_5hRjYDi_ukZU9g5-3" target="UAJ1_5hRjYDi_ukZU9g5-17">
          <mxGeometry relative="1" as="geometry" />
        </mxCell>
        <mxCell id="UAJ1_5hRjYDi_ukZU9g5-3" value="" style="sketch=0;points=[[0.015,0.015,0],[0.985,0.015,0],[0.985,0.985,0],[0.015,0.985,0],[0.25,0,0],[0.5,0,0],[0.75,0,0],[1,0.25,0],[1,0.5,0],[1,0.75,0],[0.75,1,0],[0.5,1,0],[0.25,1,0],[0,0.75,0],[0,0.5,0],[0,0.25,0]];verticalLabelPosition=bottom;html=1;verticalAlign=top;aspect=fixed;align=center;pointerEvents=1;shape=mxgraph.cisco19.rect;prIcon=secure_catalyst_switch_subdued;fillColor=#FAFAFA;strokeColor=#6696AB;" vertex="1" parent="1">
          <mxGeometry x="630" y="522" width="70" height="71" as="geometry" />
        </mxCell>
        <mxCell id="UAJ1_5hRjYDi_ukZU9g5-4" value="" style="shape=image;html=1;verticalAlign=top;verticalLabelPosition=bottom;labelBackgroundColor=#ffffff;imageAspect=0;aspect=fixed;image=https://cdn4.iconfinder.com/data/icons/vecico-connectivity/288/radio-128.png" vertex="1" parent="1">
          <mxGeometry x="112" y="519" width="38" height="38" as="geometry" />
        </mxCell>
        <mxCell id="UAJ1_5hRjYDi_ukZU9g5-5" value="" style="verticalLabelPosition=bottom;html=1;verticalAlign=top;align=center;strokeColor=none;fillColor=#00BEF2;shape=mxgraph.azure.mobile;pointerEvents=1;" vertex="1" parent="1">
          <mxGeometry x="20" y="560" width="35" height="50" as="geometry" />
        </mxCell>
        <mxCell id="UAJ1_5hRjYDi_ukZU9g5-6" value="" style="sketch=0;html=1;aspect=fixed;strokeColor=none;shadow=0;align=center;verticalAlign=top;fillColor=#3B8DF1;shape=mxgraph.gcp2.phone_android" vertex="1" parent="1">
          <mxGeometry x="29.1" y="489" width="16.8" height="30" as="geometry" />
        </mxCell>
        <mxCell id="UAJ1_5hRjYDi_ukZU9g5-7" value="" style="endArrow=none;dashed=1;html=1;rounded=0;" edge="1" parent="1">
          <mxGeometry width="50" height="50" relative="1" as="geometry">
            <mxPoint x="80" y="670" as="sourcePoint" />
            <mxPoint x="80" y="420" as="targetPoint" />
          </mxGeometry>
        </mxCell>
        <mxCell id="UAJ1_5hRjYDi_ukZU9g5-8" value="" style="shape=image;html=1;verticalAlign=top;verticalLabelPosition=bottom;labelBackgroundColor=#ffffff;imageAspect=0;aspect=fixed;image=https://cdn4.iconfinder.com/data/icons/vecico-connectivity/288/radio-128.png" vertex="1" parent="1">
          <mxGeometry x="170" y="590" width="38" height="38" as="geometry" />
        </mxCell>
        <mxCell id="UAJ1_5hRjYDi_ukZU9g5-9" value="" style="shape=image;html=1;verticalAlign=top;verticalLabelPosition=bottom;labelBackgroundColor=#ffffff;imageAspect=0;aspect=fixed;image=https://cdn4.iconfinder.com/data/icons/vecico-connectivity/288/radio-128.png" vertex="1" parent="1">
          <mxGeometry x="188" y="451" width="38" height="38" as="geometry" />
        </mxCell>
        <mxCell id="UAJ1_5hRjYDi_ukZU9g5-10" value="" style="endArrow=none;html=1;rounded=0;" edge="1" parent="1">
          <mxGeometry width="50" height="50" relative="1" as="geometry">
            <mxPoint x="138" y="559" as="sourcePoint" />
            <mxPoint x="230" y="559" as="targetPoint" />
          </mxGeometry>
        </mxCell>
        <mxCell id="UAJ1_5hRjYDi_ukZU9g5-11" value="" style="endArrow=none;html=1;rounded=0;entryX=0;entryY=0.5;entryDx=0;entryDy=0;entryPerimeter=0;" edge="1" parent="1" target="UAJ1_5hRjYDi_ukZU9g5-1">
          <mxGeometry width="50" height="50" relative="1" as="geometry">
            <mxPoint x="208" y="626" as="sourcePoint" />
            <mxPoint x="258" y="576" as="targetPoint" />
          </mxGeometry>
        </mxCell>
        <mxCell id="UAJ1_5hRjYDi_ukZU9g5-12" value="" style="endArrow=none;html=1;rounded=0;exitX=0;exitY=0.5;exitDx=0;exitDy=0;exitPerimeter=0;" edge="1" parent="1" source="UAJ1_5hRjYDi_ukZU9g5-1">
          <mxGeometry width="50" height="50" relative="1" as="geometry">
            <mxPoint x="330" y="570" as="sourcePoint" />
            <mxPoint x="220" y="490" as="targetPoint" />
          </mxGeometry>
        </mxCell>
        <mxCell id="UAJ1_5hRjYDi_ukZU9g5-13" value="" style="edgeStyle=orthogonalEdgeStyle;rounded=0;orthogonalLoop=1;jettySize=auto;html=1;endArrow=none;endFill=0;" edge="1" parent="1" source="UAJ1_5hRjYDi_ukZU9g5-14" target="UAJ1_5hRjYDi_ukZU9g5-3">
          <mxGeometry relative="1" as="geometry" />
        </mxCell>
        <mxCell id="UAJ1_5hRjYDi_ukZU9g5-14" value="" style="outlineConnect=0;dashed=0;verticalLabelPosition=bottom;verticalAlign=top;align=center;html=1;shape=mxgraph.aws3.customer_gateway;fillColor=#F58536;gradientColor=none;" vertex="1" parent="1">
          <mxGeometry x="560" y="537" width="40" height="40" as="geometry" />
        </mxCell>
        <mxCell id="UAJ1_5hRjYDi_ukZU9g5-15" value="" style="outlineConnect=0;dashed=0;verticalLabelPosition=bottom;verticalAlign=top;align=center;html=1;shape=mxgraph.aws3.customer_gateway;fillColor=#F58536;gradientColor=none;" vertex="1" parent="1">
          <mxGeometry x="390" y="538" width="40" height="40" as="geometry" />
        </mxCell>
        <mxCell id="UAJ1_5hRjYDi_ukZU9g5-16" value="" style="sketch=0;aspect=fixed;html=1;points=[];align=center;image;fontSize=12;image=img/lib/mscae/Virtual_WANs.svg;" vertex="1" parent="1">
          <mxGeometry x="750" y="511" width="70" height="70" as="geometry" />
        </mxCell>
        <mxCell id="UAJ1_5hRjYDi_ukZU9g5-17" value="" style="outlineConnect=0;dashed=0;verticalLabelPosition=bottom;verticalAlign=top;align=center;html=1;shape=mxgraph.aws3.customer_gateway;fillColor=#F58536;gradientColor=none;" vertex="1" parent="1">
          <mxGeometry x="739.5799999999999" y="545" width="25.21" height="26" as="geometry" />
        </mxCell>
        <mxCell id="UAJ1_5hRjYDi_ukZU9g5-18" value="" style="endArrow=none;html=1;rounded=0;exitX=1;exitY=0.5;exitDx=0;exitDy=0;exitPerimeter=0;" edge="1" parent="1" source="UAJ1_5hRjYDi_ukZU9g5-1" target="UAJ1_5hRjYDi_ukZU9g5-15">
          <mxGeometry width="50" height="50" relative="1" as="geometry">
            <mxPoint x="272" y="561" as="sourcePoint" />
            <mxPoint x="322" y="511" as="targetPoint" />
          </mxGeometry>
        </mxCell>
        <mxCell id="UAJ1_5hRjYDi_ukZU9g5-19" value="" style="endArrow=none;html=1;rounded=0;exitX=1;exitY=0.5;exitDx=0;exitDy=0;exitPerimeter=0;entryX=0;entryY=0.5;entryDx=0;entryDy=0;entryPerimeter=0;" edge="1" parent="1" target="UAJ1_5hRjYDi_ukZU9g5-14">
          <mxGeometry width="50" height="50" relative="1" as="geometry">
            <mxPoint x="430" y="557" as="sourcePoint" />
            <mxPoint x="548" y="557" as="targetPoint" />
          </mxGeometry>
        </mxCell>
        <mxCell id="UAJ1_5hRjYDi_ukZU9g5-20" value="Transport" style="rounded=1;whiteSpace=wrap;html=1;fontSize=22;" vertex="1" parent="1">
          <mxGeometry x="345" y="650" width="130" height="30" as="geometry" />
        </mxCell>
        <mxCell id="UAJ1_5hRjYDi_ukZU9g5-21" value="Packet Core" style="rounded=1;whiteSpace=wrap;html=1;fontSize=20;" vertex="1" parent="1">
          <mxGeometry x="609.58" y="650" width="130" height="30" as="geometry" />
        </mxCell>
        <mxCell id="UAJ1_5hRjYDi_ukZU9g5-22" value="&lt;font style=&quot;font-size: 22px;&quot;&gt;RAN&lt;/font&gt;" style="rounded=1;whiteSpace=wrap;html=1;" vertex="1" parent="1">
          <mxGeometry x="130" y="650" width="90" height="30" as="geometry" />
        </mxCell>
        <mxCell id="UAJ1_5hRjYDi_ukZU9g5-23" value="" style="endArrow=none;html=1;rounded=0;" edge="1" parent="1">
          <mxGeometry width="50" height="50" relative="1" as="geometry">
            <mxPoint x="110" y="664" as="sourcePoint" />
            <mxPoint x="130" y="664.4099999999999" as="targetPoint" />
          </mxGeometry>
        </mxCell>
        <mxCell id="UAJ1_5hRjYDi_ukZU9g5-24" value="" style="endArrow=none;html=1;rounded=0;" edge="1" parent="1">
          <mxGeometry width="50" height="50" relative="1" as="geometry">
            <mxPoint x="220" y="664.71" as="sourcePoint" />
            <mxPoint x="240" y="665" as="targetPoint" />
          </mxGeometry>
        </mxCell>
        <mxCell id="UAJ1_5hRjYDi_ukZU9g5-25" value="" style="endArrow=none;html=1;rounded=0;" edge="1" parent="1">
          <mxGeometry width="50" height="50" relative="1" as="geometry">
            <mxPoint x="250" y="687.3499999999999" as="sourcePoint" />
            <mxPoint x="250" y="642.6399999999999" as="targetPoint" />
          </mxGeometry>
        </mxCell>
        <mxCell id="UAJ1_5hRjYDi_ukZU9g5-26" value="" style="endArrow=none;html=1;rounded=0;entryX=0;entryY=0.5;entryDx=0;entryDy=0;" edge="1" parent="1" target="UAJ1_5hRjYDi_ukZU9g5-20">
          <mxGeometry width="50" height="50" relative="1" as="geometry">
            <mxPoint x="260" y="665" as="sourcePoint" />
            <mxPoint x="250" y="675" as="targetPoint" />
          </mxGeometry>
        </mxCell>
        <mxCell id="UAJ1_5hRjYDi_ukZU9g5-27" value="" style="endArrow=none;html=1;rounded=0;" edge="1" parent="1">
          <mxGeometry width="50" height="50" relative="1" as="geometry">
            <mxPoint x="475" y="664.71" as="sourcePoint" />
            <mxPoint x="570" y="665" as="targetPoint" />
          </mxGeometry>
        </mxCell>
        <mxCell id="UAJ1_5hRjYDi_ukZU9g5-28" value="" style="endArrow=none;html=1;rounded=0;" edge="1" parent="1">
          <mxGeometry width="50" height="50" relative="1" as="geometry">
            <mxPoint x="579.8299999999999" y="687.3499999999999" as="sourcePoint" />
            <mxPoint x="579.8299999999999" y="642.6399999999999" as="targetPoint" />
          </mxGeometry>
        </mxCell>
        <mxCell id="UAJ1_5hRjYDi_ukZU9g5-29" value="" style="endArrow=none;html=1;rounded=0;entryX=0;entryY=0.5;entryDx=0;entryDy=0;" edge="1" parent="1">
          <mxGeometry width="50" height="50" relative="1" as="geometry">
            <mxPoint x="590" y="665" as="sourcePoint" />
            <mxPoint x="609.5799999999997" y="664.71" as="targetPoint" />
          </mxGeometry>
        </mxCell>
        <mxCell id="UAJ1_5hRjYDi_ukZU9g5-30" value="Backhaul" style="text;whiteSpace=wrap;html=1;fontSize=22;" vertex="1" parent="1">
          <mxGeometry x="280" y="570" width="120" height="40" as="geometry" />
        </mxCell>
        <mxCell id="UAJ1_5hRjYDi_ukZU9g5-31" value="Backhaul" style="text;whiteSpace=wrap;html=1;fontSize=22;" vertex="1" parent="1">
          <mxGeometry x="450" y="571" width="120" height="40" as="geometry" />
        </mxCell>
        <mxCell id="UAJ1_5hRjYDi_ukZU9g5-33" value="gNB" style="text;whiteSpace=wrap;html=1;fontSize=22;" vertex="1" parent="1">
          <mxGeometry x="118" y="471" width="120" height="40" as="geometry" />
        </mxCell>
        <mxCell id="UAJ1_5hRjYDi_ukZU9g5-35" value="Edge" style="rounded=1;whiteSpace=wrap;html=1;fontSize=22;" vertex="1" parent="1">
          <mxGeometry x="460" y="445" width="90" height="30" as="geometry" />
        </mxCell>
        <mxCell id="UAJ1_5hRjYDi_ukZU9g5-36" value="" style="endArrow=none;html=1;rounded=0;" edge="1" parent="1" target="VaFtsXz-8qVugDbF5ZBs-1">
          <mxGeometry width="50" height="50" relative="1" as="geometry">
            <mxPoint x="410.25" y="537" as="sourcePoint" />
            <mxPoint x="409.7499999999999" y="507.28999999999985" as="targetPoint" />
          </mxGeometry>
        </mxCell>
        <mxCell id="UAJ1_5hRjYDi_ukZU9g5-37" value="" style="shape=mxgraph.signs.transportation.car_4;html=1;pointerEvents=1;fillColor=#000000;strokeColor=none;verticalLabelPosition=bottom;verticalAlign=top;align=center;fontSize=22;" vertex="1" parent="1">
          <mxGeometry x="21" y="625" width="34" height="40" as="geometry" />
        </mxCell>
        <mxCell id="UAJ1_5hRjYDi_ukZU9g5-38" value="" style="shape=image;html=1;verticalAlign=top;verticalLabelPosition=bottom;labelBackgroundColor=#ffffff;imageAspect=0;aspect=fixed;image=https://cdn4.iconfinder.com/data/icons/essentials-74/24/043_-_Smart_Watch-128.png;fontSize=22;fillColor=none;" vertex="1" parent="1">
          <mxGeometry x="25" y="445" width="30" height="30" as="geometry" />
        </mxCell>
        <mxCell id="UAJ1_5hRjYDi_ukZU9g5-39" value="" style="html=1;verticalLabelPosition=bottom;align=center;labelBackgroundColor=#ffffff;verticalAlign=top;strokeWidth=2;strokeColor=#0080F0;shadow=0;dashed=0;shape=mxgraph.ios7.icons.home;fontSize=22;fillColor=none;" vertex="1" parent="1">
          <mxGeometry x="28" y="526" width="24" height="25.5" as="geometry" />
        </mxCell>
      </root>
    </mxGraphModel>
  </diagram>
  <diagram id="6lws6jtBGQpn_5SXdRGK" name="3-physical-attack">
    <mxGraphModel dx="1574" dy="813" grid="0" gridSize="10" guides="1" tooltips="1" connect="1" arrows="1" fold="1" page="1" pageScale="1" pageWidth="850" pageHeight="1100" math="0" shadow="0">
      <root>
        <mxCell id="0" />
        <mxCell id="1" parent="0" />
        <mxCell id="GSYU6yJmTcZrSC1ZNzvg-3" value="&lt;div&gt;&lt;br&gt;&lt;/div&gt;&lt;div&gt;&lt;br&gt;&lt;/div&gt;&lt;div&gt;&lt;br&gt;&lt;/div&gt;&lt;div&gt;&lt;br&gt;&lt;/div&gt;&lt;div&gt;&lt;br&gt;&lt;/div&gt;&lt;div&gt;&lt;br&gt;&lt;/div&gt;&lt;div&gt;Front haul &lt;/div&gt;" style="rounded=0;whiteSpace=wrap;html=1;fontSize=22;fillColor=none;dashed=1;strokeWidth=2;" vertex="1" parent="1">
          <mxGeometry x="210" y="403" width="200" height="184" as="geometry" />
        </mxCell>
        <mxCell id="JbBGPI6YidNJgU-27GN8-6" value="" style="rounded=1;whiteSpace=wrap;html=1;fontSize=22;fillColor=none;" vertex="1" parent="1">
          <mxGeometry x="10" y="430" width="130" height="120" as="geometry" />
        </mxCell>
        <mxCell id="JbBGPI6YidNJgU-27GN8-1" value="" style="verticalLabelPosition=bottom;html=1;verticalAlign=top;align=center;strokeColor=none;fillColor=#00BEF2;shape=mxgraph.azure.mobile;pointerEvents=1;" vertex="1" parent="1">
          <mxGeometry x="69" y="489" width="21" height="31" as="geometry" />
        </mxCell>
        <mxCell id="JbBGPI6YidNJgU-27GN8-2" value="" style="sketch=0;html=1;aspect=fixed;strokeColor=none;shadow=0;align=center;verticalAlign=top;fillColor=#3B8DF1;shape=mxgraph.gcp2.phone_android" vertex="1" parent="1">
          <mxGeometry x="29.1" y="489" width="16.8" height="30" as="geometry" />
        </mxCell>
        <mxCell id="JbBGPI6YidNJgU-27GN8-3" value="" style="shape=mxgraph.signs.transportation.car_4;html=1;pointerEvents=1;fillColor=#000000;strokeColor=none;verticalLabelPosition=bottom;verticalAlign=top;align=center;fontSize=22;" vertex="1" parent="1">
          <mxGeometry x="110" y="471.5" width="19" height="15" as="geometry" />
        </mxCell>
        <mxCell id="JbBGPI6YidNJgU-27GN8-4" value="" style="shape=image;html=1;verticalAlign=top;verticalLabelPosition=bottom;labelBackgroundColor=#ffffff;imageAspect=0;aspect=fixed;image=https://cdn4.iconfinder.com/data/icons/essentials-74/24/043_-_Smart_Watch-128.png;fontSize=22;fillColor=none;" vertex="1" parent="1">
          <mxGeometry x="25" y="445" width="30" height="30" as="geometry" />
        </mxCell>
        <mxCell id="JbBGPI6YidNJgU-27GN8-5" value="" style="html=1;verticalLabelPosition=bottom;align=center;labelBackgroundColor=#ffffff;verticalAlign=top;strokeWidth=2;strokeColor=#0080F0;shadow=0;dashed=0;shape=mxgraph.ios7.icons.home;fontSize=22;fillColor=none;" vertex="1" parent="1">
          <mxGeometry x="80" y="445" width="24" height="25.5" as="geometry" />
        </mxCell>
        <mxCell id="um3OaD2oshyZeJS97i_S-1" value="UE" style="text;whiteSpace=wrap;html=1;fontSize=22;" vertex="1" parent="1">
          <mxGeometry x="100" y="511" width="120" height="40" as="geometry" />
        </mxCell>
        <mxCell id="x3cPaDsDw1BNEykwnJc9-1" value="" style="shape=image;html=1;verticalAlign=top;verticalLabelPosition=bottom;labelBackgroundColor=#ffffff;imageAspect=0;aspect=fixed;image=https://cdn4.iconfinder.com/data/icons/vecico-connectivity/288/radio-128.png" vertex="1" parent="1">
          <mxGeometry x="220" y="460" width="38" height="38" as="geometry" />
        </mxCell>
        <mxCell id="GSYU6yJmTcZrSC1ZNzvg-1" value="" style="fontColor=#0066CC;verticalAlign=top;verticalLabelPosition=bottom;labelPosition=center;align=center;html=1;outlineConnect=0;fillColor=#CCCCCC;strokeColor=#6881B3;gradientColor=none;gradientDirection=north;strokeWidth=2;shape=mxgraph.networks.server;fontSize=22;" vertex="1" parent="1">
          <mxGeometry x="310" y="455" width="70" height="80" as="geometry" />
        </mxCell>
        <mxCell id="GSYU6yJmTcZrSC1ZNzvg-9" value="" style="endArrow=none;html=1;fontSize=22;curved=1;" edge="1" parent="1">
          <mxGeometry width="50" height="50" relative="1" as="geometry">
            <mxPoint x="240" y="489" as="sourcePoint" />
            <mxPoint x="310" y="520" as="targetPoint" />
            <Array as="points">
              <mxPoint x="270" y="530" />
            </Array>
          </mxGeometry>
        </mxCell>
        <mxCell id="GSYU6yJmTcZrSC1ZNzvg-10" value="" style="endArrow=none;html=1;fontSize=22;rounded=0;" edge="1" parent="1" target="GSYU6yJmTcZrSC1ZNzvg-11">
          <mxGeometry width="50" height="50" relative="1" as="geometry">
            <mxPoint x="380" y="521" as="sourcePoint" />
            <mxPoint x="540" y="521" as="targetPoint" />
          </mxGeometry>
        </mxCell>
        <mxCell id="GSYU6yJmTcZrSC1ZNzvg-11" value="xHaul" style="rounded=1;whiteSpace=wrap;html=1;dashed=1;fontSize=22;strokeWidth=2;fillColor=#dae8fc;strokeColor=#6c8ebf;" vertex="1" parent="1">
          <mxGeometry x="480" y="491" width="120" height="60" as="geometry" />
        </mxCell>
        <mxCell id="GSYU6yJmTcZrSC1ZNzvg-12" value="10,000s" style="rounded=0;whiteSpace=wrap;html=1;fontSize=22;strokeWidth=2;fillColor=none;" vertex="1" parent="1">
          <mxGeometry x="250" y="620" width="310" height="35" as="geometry" />
        </mxCell>
        <mxCell id="GSYU6yJmTcZrSC1ZNzvg-14" value="" style="endArrow=classic;html=1;rounded=0;fontSize=22;" edge="1" parent="1" target="GSYU6yJmTcZrSC1ZNzvg-3">
          <mxGeometry width="50" height="50" relative="1" as="geometry">
            <mxPoint x="430" y="620" as="sourcePoint" />
            <mxPoint x="480" y="570" as="targetPoint" />
          </mxGeometry>
        </mxCell>
        <mxCell id="GSYU6yJmTcZrSC1ZNzvg-15" value="" style="rounded=0;whiteSpace=wrap;html=1;fontSize=22;fillColor=none;dashed=1;strokeWidth=2;" vertex="1" parent="1">
          <mxGeometry x="270" y="750" width="200" height="170" as="geometry" />
        </mxCell>
        <mxCell id="GSYU6yJmTcZrSC1ZNzvg-16" value="" style="fontColor=#0066CC;verticalAlign=top;verticalLabelPosition=bottom;labelPosition=center;align=center;html=1;outlineConnect=0;fillColor=#CCCCCC;strokeColor=#6881B3;gradientColor=none;gradientDirection=north;strokeWidth=2;shape=mxgraph.networks.server;fontSize=22;" vertex="1" parent="1">
          <mxGeometry x="330" y="802" width="70" height="80" as="geometry" />
        </mxCell>
        <mxCell id="oRI6glDPuTivafNrHp0Y-1" value="Front haul" style="text;whiteSpace=wrap;html=1;fontSize=22;" vertex="1" parent="1">
          <mxGeometry x="320" y="882" width="120" height="40" as="geometry" />
        </mxCell>
        <mxCell id="oRI6glDPuTivafNrHp0Y-2" value="" style="shape=image;html=1;verticalAlign=top;verticalLabelPosition=bottom;labelBackgroundColor=#ffffff;imageAspect=0;aspect=fixed;image=https://cdn4.iconfinder.com/data/icons/vecico-connectivity/288/radio-128.png" vertex="1" parent="1">
          <mxGeometry x="180" y="720" width="38" height="38" as="geometry" />
        </mxCell>
        <mxCell id="oRI6glDPuTivafNrHp0Y-3" value="" style="endArrow=none;html=1;fontSize=22;curved=1;" edge="1" parent="1">
          <mxGeometry width="50" height="50" relative="1" as="geometry">
            <mxPoint x="200" y="749" as="sourcePoint" />
            <mxPoint x="270" y="780" as="targetPoint" />
            <Array as="points">
              <mxPoint x="230" y="790" />
            </Array>
          </mxGeometry>
        </mxCell>
        <mxCell id="oRI6glDPuTivafNrHp0Y-4" value="" style="endArrow=none;dashed=1;html=1;rounded=0;fontSize=22;strokeWidth=2;" edge="1" parent="1">
          <mxGeometry width="50" height="50" relative="1" as="geometry">
            <mxPoint x="150" y="1040" as="sourcePoint" />
            <mxPoint x="268" y="922" as="targetPoint" />
          </mxGeometry>
        </mxCell>
        <mxCell id="oRI6glDPuTivafNrHp0Y-5" value="" style="endArrow=none;dashed=1;html=1;rounded=0;fontSize=22;strokeWidth=2;" edge="1" parent="1">
          <mxGeometry width="50" height="50" relative="1" as="geometry">
            <mxPoint x="590" y="1030" as="sourcePoint" />
            <mxPoint x="470" y="920" as="targetPoint" />
          </mxGeometry>
        </mxCell>
        <mxCell id="oRI6glDPuTivafNrHp0Y-6" value="" style="fontColor=#0066CC;verticalAlign=top;verticalLabelPosition=bottom;labelPosition=center;align=center;html=1;outlineConnect=0;fillColor=#CCCCCC;strokeColor=#6881B3;gradientColor=none;gradientDirection=north;strokeWidth=2;shape=mxgraph.networks.switch;fontSize=22;" vertex="1" parent="1">
          <mxGeometry x="320" y="940" width="100" height="30" as="geometry" />
        </mxCell>
        <mxCell id="oRI6glDPuTivafNrHp0Y-7" value="" style="outlineConnect=0;dashed=0;verticalLabelPosition=bottom;verticalAlign=top;align=center;html=1;shape=mxgraph.aws3.ec2_compute_container_3;fillColor=#F58534;gradientColor=none;fontSize=22;strokeWidth=2;" vertex="1" parent="1">
          <mxGeometry x="320" y="990" width="100" height="34.5" as="geometry" />
        </mxCell>
        <mxCell id="3HmMOWPa-S_F8Ln47975-1" value="cCU" style="rounded=1;whiteSpace=wrap;html=1;fontSize=15;fillColor=#fff2cc;strokeColor=#d6b656;" vertex="1" parent="1">
          <mxGeometry x="385" y="1040" width="55" height="20" as="geometry" />
        </mxCell>
        <mxCell id="3HmMOWPa-S_F8Ln47975-2" value="vDU" style="rounded=1;whiteSpace=wrap;html=1;fontSize=15;fillColor=#fff2cc;strokeColor=#d6b656;" vertex="1" parent="1">
          <mxGeometry x="317.5" y="1040" width="55" height="20" as="geometry" />
        </mxCell>
        <mxCell id="3HmMOWPa-S_F8Ln47975-4" value="ToR" style="text;whiteSpace=wrap;html=1;fontSize=22;" vertex="1" parent="1">
          <mxGeometry x="270" y="930" width="120" height="40" as="geometry" />
        </mxCell>
        <mxCell id="3HmMOWPa-S_F8Ln47975-6" value="Compute" style="text;whiteSpace=wrap;html=1;fontSize=22;" vertex="1" parent="1">
          <mxGeometry x="220" y="984.5" width="120" height="40" as="geometry" />
        </mxCell>
        <mxCell id="3HmMOWPa-S_F8Ln47975-7" value="&lt;blockquote style=&quot;font-size: 19px;&quot;&gt;&lt;div&gt;TOR controls&lt;/div&gt;&lt;div align=&quot;left&quot;&gt;&lt;ul&gt;&lt;li&gt;Port security&lt;/li&gt;&lt;li&gt;Dynamic ARP inspection&lt;/li&gt;&lt;li&gt;Trusted Hardware&lt;/li&gt;&lt;/ul&gt;&lt;/div&gt;&lt;div&gt;&lt;br&gt;&lt;/div&gt;&lt;/blockquote&gt;" style="rounded=1;whiteSpace=wrap;html=1;fontSize=15;strokeWidth=2;fillColor=none;" vertex="1" parent="1">
          <mxGeometry x="478" y="745" width="316" height="175" as="geometry" />
        </mxCell>
      </root>
    </mxGraphModel>
  </diagram>
  <diagram id="YRcmmuD4cTgRMcRiLnen" name="4-physical-attacks-2">
    <mxGraphModel dx="2545" dy="875" grid="0" gridSize="10" guides="1" tooltips="1" connect="1" arrows="1" fold="1" page="1" pageScale="1" pageWidth="850" pageHeight="1100" math="0" shadow="0">
      <root>
        <mxCell id="0" />
        <mxCell id="1" parent="0" />
        <mxCell id="J_AakY5ADkwhQeRlonQ_-1" value="DU" style="rounded=1;whiteSpace=wrap;html=1;fontSize=19;strokeWidth=2;fillColor=#1ba1e2;strokeColor=#006EAF;fontColor=#ffffff;" vertex="1" parent="1">
          <mxGeometry x="74" y="246" width="120" height="60" as="geometry" />
        </mxCell>
        <mxCell id="J_AakY5ADkwhQeRlonQ_-2" value="CU" style="rounded=1;whiteSpace=wrap;html=1;fontSize=19;strokeWidth=2;fillColor=#1ba1e2;strokeColor=#006EAF;fontColor=#ffffff;" vertex="1" parent="1">
          <mxGeometry x="440" y="244" width="120" height="60" as="geometry" />
        </mxCell>
        <mxCell id="J_AakY5ADkwhQeRlonQ_-3" value="DU" style="rounded=1;whiteSpace=wrap;html=1;fontSize=19;strokeWidth=2;fillColor=#1ba1e2;strokeColor=#006EAF;fontColor=#ffffff;" vertex="1" parent="1">
          <mxGeometry x="86" y="254" width="120" height="60" as="geometry" />
        </mxCell>
        <mxCell id="J_AakY5ADkwhQeRlonQ_-4" value="DU" style="rounded=1;whiteSpace=wrap;html=1;fontSize=19;strokeWidth=2;fillColor=#1ba1e2;strokeColor=#006EAF;fontColor=#ffffff;" vertex="1" parent="1">
          <mxGeometry x="96" y="264" width="120" height="60" as="geometry" />
        </mxCell>
        <mxCell id="N-ZF-kUZekqHMMJaowxR-1" value="" style="shape=image;html=1;verticalAlign=top;verticalLabelPosition=bottom;labelBackgroundColor=#ffffff;imageAspect=0;aspect=fixed;image=https://cdn4.iconfinder.com/data/icons/vecico-connectivity/288/radio-128.png" vertex="1" parent="1">
          <mxGeometry x="-104" y="184" width="38" height="38" as="geometry" />
        </mxCell>
        <mxCell id="N-ZF-kUZekqHMMJaowxR-2" value="" style="shape=image;html=1;verticalAlign=top;verticalLabelPosition=bottom;labelBackgroundColor=#ffffff;imageAspect=0;aspect=fixed;image=https://cdn4.iconfinder.com/data/icons/vecico-connectivity/288/radio-128.png" vertex="1" parent="1">
          <mxGeometry x="-104" y="294" width="38" height="38" as="geometry" />
        </mxCell>
        <mxCell id="N-ZF-kUZekqHMMJaowxR-3" value="" style="shape=image;html=1;verticalAlign=top;verticalLabelPosition=bottom;labelBackgroundColor=#ffffff;imageAspect=0;aspect=fixed;image=https://cdn4.iconfinder.com/data/icons/vecico-connectivity/288/radio-128.png" vertex="1" parent="1">
          <mxGeometry x="6" y="384" width="38" height="38" as="geometry" />
        </mxCell>
        <mxCell id="N-ZF-kUZekqHMMJaowxR-4" value="" style="endArrow=none;html=1;dashed=1;fontSize=19;strokeWidth=2;entryX=0.75;entryY=1;entryDx=0;entryDy=0;exitX=0;exitY=0.25;exitDx=0;exitDy=0;curved=1;" edge="1" parent="1" source="J_AakY5ADkwhQeRlonQ_-1" target="N-ZF-kUZekqHMMJaowxR-1">
          <mxGeometry width="50" height="50" relative="1" as="geometry">
            <mxPoint x="96" y="414" as="sourcePoint" />
            <mxPoint x="146" y="364" as="targetPoint" />
            <Array as="points">
              <mxPoint x="-24" y="274" />
            </Array>
          </mxGeometry>
        </mxCell>
        <mxCell id="N-ZF-kUZekqHMMJaowxR-5" value="" style="endArrow=none;dashed=1;html=1;dashPattern=1 3;strokeWidth=2;fontSize=19;entryX=0;entryY=1;entryDx=0;entryDy=0;curved=1;" edge="1" parent="1" target="J_AakY5ADkwhQeRlonQ_-1">
          <mxGeometry width="50" height="50" relative="1" as="geometry">
            <mxPoint x="-74" y="332" as="sourcePoint" />
            <mxPoint x="-24" y="282" as="targetPoint" />
            <Array as="points">
              <mxPoint x="-4" y="294" />
            </Array>
          </mxGeometry>
        </mxCell>
        <mxCell id="N-ZF-kUZekqHMMJaowxR-6" value="" style="endArrow=none;dashed=1;html=1;dashPattern=1 3;strokeWidth=2;fontSize=19;entryX=0.092;entryY=1.017;entryDx=0;entryDy=0;entryPerimeter=0;curved=1;" edge="1" parent="1" target="J_AakY5ADkwhQeRlonQ_-4">
          <mxGeometry width="50" height="50" relative="1" as="geometry">
            <mxPoint x="46" y="414" as="sourcePoint" />
            <mxPoint x="96" y="364" as="targetPoint" />
            <Array as="points">
              <mxPoint x="116" y="394" />
            </Array>
          </mxGeometry>
        </mxCell>
        <mxCell id="N-ZF-kUZekqHMMJaowxR-7" value="DU" style="rounded=1;whiteSpace=wrap;html=1;fontSize=19;strokeWidth=2;fillColor=#1ba1e2;strokeColor=#006EAF;fontColor=#ffffff;" vertex="1" parent="1">
          <mxGeometry x="106" y="274" width="120" height="60" as="geometry" />
        </mxCell>
        <mxCell id="N-ZF-kUZekqHMMJaowxR-8" value="CU" style="rounded=1;whiteSpace=wrap;html=1;fontSize=19;strokeWidth=2;fillColor=#1ba1e2;strokeColor=#006EAF;fontColor=#ffffff;" vertex="1" parent="1">
          <mxGeometry x="450" y="254" width="120" height="60" as="geometry" />
        </mxCell>
        <mxCell id="N-ZF-kUZekqHMMJaowxR-9" value="CMS" style="rounded=1;whiteSpace=wrap;html=1;fontSize=31;strokeWidth=2;fillColor=#fff2cc;strokeColor=#d6b656;" vertex="1" parent="1">
          <mxGeometry x="436" y="104" width="120" height="60" as="geometry" />
        </mxCell>
        <mxCell id="hV3PbdSx-5R0hL48eR_b-1" value="" style="sketch=0;points=[[0.015,0.015,0],[0.985,0.015,0],[0.985,0.985,0],[0.015,0.985,0],[0.25,0,0],[0.5,0,0],[0.75,0,0],[1,0.25,0],[1,0.5,0],[1,0.75,0],[0.75,1,0],[0.5,1,0],[0.25,1,0],[0,0.75,0],[0,0.5,0],[0,0.25,0]];verticalLabelPosition=bottom;html=1;verticalAlign=top;aspect=fixed;align=center;pointerEvents=1;shape=mxgraph.cisco19.rect;prIcon=secure_catalyst_switch_subdued;fillColor=#FAFAFA;strokeColor=#6696AB;" vertex="1" parent="1">
          <mxGeometry x="796" y="239" width="108.45" height="110" as="geometry" />
        </mxCell>
        <mxCell id="hV3PbdSx-5R0hL48eR_b-4" value="" style="endArrow=classic;html=1;fontSize=31;strokeWidth=2;curved=1;" edge="1" parent="1">
          <mxGeometry width="50" height="50" relative="1" as="geometry">
            <mxPoint x="426" y="154" as="sourcePoint" />
            <mxPoint x="206" y="234" as="targetPoint" />
          </mxGeometry>
        </mxCell>
        <mxCell id="hV3PbdSx-5R0hL48eR_b-5" value="" style="endArrow=classic;html=1;fontSize=31;strokeWidth=2;curved=1;" edge="1" parent="1">
          <mxGeometry width="50" height="50" relative="1" as="geometry">
            <mxPoint x="566" y="154" as="sourcePoint" />
            <mxPoint x="826" y="224" as="targetPoint" />
          </mxGeometry>
        </mxCell>
        <mxCell id="hV3PbdSx-5R0hL48eR_b-6" value="" style="endArrow=classic;html=1;fontSize=31;strokeWidth=2;curved=1;" edge="1" parent="1">
          <mxGeometry width="50" height="50" relative="1" as="geometry">
            <mxPoint x="496" y="173" as="sourcePoint" />
            <mxPoint x="496" y="233" as="targetPoint" />
          </mxGeometry>
        </mxCell>
        <mxCell id="hV3PbdSx-5R0hL48eR_b-7" value="&lt;div align=&quot;left&quot;&gt;&amp;nbsp;&amp;nbsp; IPsec&lt;/div&gt;" style="rounded=1;whiteSpace=wrap;html=1;fontSize=19;strokeWidth=2;fillColor=#d5e8d4;strokeColor=#82b366;align=left;" vertex="1" parent="1">
          <mxGeometry x="226" y="274" width="210" height="20" as="geometry" />
        </mxCell>
        <mxCell id="hV3PbdSx-5R0hL48eR_b-8" value="&lt;div align=&quot;right&quot;&gt;SecGW&lt;/div&gt;" style="rounded=1;whiteSpace=wrap;html=1;fontSize=19;strokeWidth=2;fillColor=#d5e8d4;strokeColor=#82b366;align=right;" vertex="1" parent="1">
          <mxGeometry x="376" y="279" width="90" height="30" as="geometry" />
        </mxCell>
        <mxCell id="hV3PbdSx-5R0hL48eR_b-9" value="&lt;div align=&quot;left&quot;&gt;&amp;nbsp;&amp;nbsp; IPsec&lt;/div&gt;" style="rounded=1;whiteSpace=wrap;html=1;fontSize=19;strokeWidth=2;fillColor=#d5e8d4;strokeColor=#82b366;align=left;" vertex="1" parent="1">
          <mxGeometry x="571" y="279" width="210" height="20" as="geometry" />
        </mxCell>
        <mxCell id="hV3PbdSx-5R0hL48eR_b-10" value="&lt;div align=&quot;right&quot;&gt;SecGW&lt;/div&gt;" style="rounded=1;whiteSpace=wrap;html=1;fontSize=19;strokeWidth=2;fillColor=#d5e8d4;strokeColor=#82b366;align=right;" vertex="1" parent="1">
          <mxGeometry x="726" y="284" width="90" height="30" as="geometry" />
        </mxCell>
        <mxCell id="7OksMAmdBOzpspwqmjVo-1" value="Certificate Management System" style="text;whiteSpace=wrap;html=1;fontSize=22;" vertex="1" parent="1">
          <mxGeometry x="570" y="104" width="570" height="40" as="geometry" />
        </mxCell>
        <mxCell id="7OksMAmdBOzpspwqmjVo-2" value="Packet Core" style="text;whiteSpace=wrap;html=1;fontSize=22;" vertex="1" parent="1">
          <mxGeometry x="806" y="349" width="570" height="40" as="geometry" />
        </mxCell>
      </root>
    </mxGraphModel>
  </diagram>
  <diagram id="An6oZ2NKw3E3FX2lj3u6" name="5-Roaming-1">
    <mxGraphModel dx="918" dy="474" grid="0" gridSize="10" guides="1" tooltips="1" connect="1" arrows="1" fold="1" page="1" pageScale="1" pageWidth="850" pageHeight="1100" math="0" shadow="0">
      <root>
        <mxCell id="0" />
        <mxCell id="1" parent="0" />
        <mxCell id="wU12SF3ZgLvrXuc0s74N-3" value="" style="rounded=1;whiteSpace=wrap;html=1;fontSize=31;strokeWidth=2;fillColor=none;dashed=1;" vertex="1" parent="1">
          <mxGeometry x="40" y="350" width="200" height="130" as="geometry" />
        </mxCell>
        <mxCell id="ESeGVRUCoMlsJQK9eWI4-4" value="" style="shape=mxgraph.signs.transportation.car_4;html=1;pointerEvents=1;fillColor=#000000;strokeColor=none;verticalLabelPosition=bottom;verticalAlign=top;align=center;fontSize=22;" vertex="1" parent="1">
          <mxGeometry x="95" y="430" width="19" height="15" as="geometry" />
        </mxCell>
        <mxCell id="ESeGVRUCoMlsJQK9eWI4-5" value="" style="shape=image;html=1;verticalAlign=top;verticalLabelPosition=bottom;labelBackgroundColor=#ffffff;imageAspect=0;aspect=fixed;image=https://cdn4.iconfinder.com/data/icons/essentials-74/24/043_-_Smart_Watch-128.png;fontSize=22;fillColor=none;" vertex="1" parent="1">
          <mxGeometry x="65" y="395" width="30" height="30" as="geometry" />
        </mxCell>
        <mxCell id="ESeGVRUCoMlsJQK9eWI4-6" value="" style="html=1;verticalLabelPosition=bottom;align=center;labelBackgroundColor=#ffffff;verticalAlign=top;strokeWidth=2;strokeColor=#0080F0;shadow=0;dashed=0;shape=mxgraph.ios7.icons.home;fontSize=22;fillColor=none;" vertex="1" parent="1">
          <mxGeometry x="120" y="395" width="20" height="25" as="geometry" />
        </mxCell>
        <mxCell id="ESeGVRUCoMlsJQK9eWI4-7" value="" style="shape=image;html=1;verticalAlign=top;verticalLabelPosition=bottom;labelBackgroundColor=#ffffff;imageAspect=0;aspect=fixed;image=https://cdn0.iconfinder.com/data/icons/google-material-design-3-0/48/ic_settings_input_antenna_48px-128.png;fontSize=31;strokeWidth=2;fillColor=none;" vertex="1" parent="1">
          <mxGeometry x="96" y="377" width="18" height="18" as="geometry" />
        </mxCell>
        <mxCell id="ESeGVRUCoMlsJQK9eWI4-8" value="" style="rounded=1;whiteSpace=wrap;html=1;fontSize=31;strokeWidth=2;fillColor=none;" vertex="1" parent="1">
          <mxGeometry x="60" y="370" width="90" height="80" as="geometry" />
        </mxCell>
        <mxCell id="wU12SF3ZgLvrXuc0s74N-1" value="" style="shape=image;html=1;verticalAlign=top;verticalLabelPosition=bottom;labelBackgroundColor=#ffffff;imageAspect=0;aspect=fixed;image=https://cdn4.iconfinder.com/data/icons/vecico-connectivity/288/radio-128.png" vertex="1" parent="1">
          <mxGeometry x="170" y="360" width="28" height="28" as="geometry" />
        </mxCell>
        <mxCell id="wU12SF3ZgLvrXuc0s74N-2" value="" style="shape=image;html=1;verticalAlign=top;verticalLabelPosition=bottom;labelBackgroundColor=#ffffff;imageAspect=0;aspect=fixed;image=https://cdn4.iconfinder.com/data/icons/vecico-connectivity/288/radio-128.png" vertex="1" parent="1">
          <mxGeometry x="169" y="410" width="29" height="29" as="geometry" />
        </mxCell>
        <mxCell id="wU12SF3ZgLvrXuc0s74N-4" value="" style="endArrow=classic;html=1;fontSize=31;strokeWidth=2;curved=1;" edge="1" parent="1">
          <mxGeometry width="50" height="50" relative="1" as="geometry">
            <mxPoint x="210" y="394.31" as="sourcePoint" />
            <mxPoint x="310" y="394.31" as="targetPoint" />
          </mxGeometry>
        </mxCell>
        <mxCell id="wU12SF3ZgLvrXuc0s74N-5" value="" style="endArrow=classic;html=1;fontSize=31;strokeWidth=2;curved=1;" edge="1" parent="1">
          <mxGeometry width="50" height="50" relative="1" as="geometry">
            <mxPoint x="210" y="404.30999999999995" as="sourcePoint" />
            <mxPoint x="310" y="404.30999999999995" as="targetPoint" />
          </mxGeometry>
        </mxCell>
        <mxCell id="wU12SF3ZgLvrXuc0s74N-6" value="" style="endArrow=classic;html=1;fontSize=31;strokeWidth=2;curved=1;" edge="1" parent="1">
          <mxGeometry width="50" height="50" relative="1" as="geometry">
            <mxPoint x="211" y="414.30999999999995" as="sourcePoint" />
            <mxPoint x="311" y="414.30999999999995" as="targetPoint" />
          </mxGeometry>
        </mxCell>
        <mxCell id="wU12SF3ZgLvrXuc0s74N-7" value="" style="rounded=1;whiteSpace=wrap;html=1;fontSize=31;strokeWidth=2;fillColor=none;dashed=1;" vertex="1" parent="1">
          <mxGeometry x="280" y="352.5" width="200" height="127.5" as="geometry" />
        </mxCell>
        <mxCell id="wU12SF3ZgLvrXuc0s74N-8" value="SGW/AMF" style="rounded=1;whiteSpace=wrap;html=1;fontSize=11;strokeWidth=1;fillColor=#dae8fc;strokeColor=#6c8ebf;" vertex="1" parent="1">
          <mxGeometry x="320" y="390" width="70" height="20" as="geometry" />
        </mxCell>
        <mxCell id="wU12SF3ZgLvrXuc0s74N-9" value="PGW/UPDF" style="rounded=1;whiteSpace=wrap;html=1;fontSize=11;strokeWidth=1;fillColor=#dae8fc;strokeColor=#6c8ebf;" vertex="1" parent="1">
          <mxGeometry x="320" y="364" width="70" height="20" as="geometry" />
        </mxCell>
        <mxCell id="wU12SF3ZgLvrXuc0s74N-10" value="HSS/UDM" style="rounded=1;whiteSpace=wrap;html=1;fontSize=11;strokeWidth=1;fillColor=#dae8fc;strokeColor=#6c8ebf;" vertex="1" parent="1">
          <mxGeometry x="320" y="414.5" width="70" height="20" as="geometry" />
        </mxCell>
        <mxCell id="wU12SF3ZgLvrXuc0s74N-11" value="Visiting PLMN" style="text;html=1;align=center;verticalAlign=middle;resizable=0;points=[];autosize=1;strokeColor=none;fillColor=none;fontSize=11;" vertex="1" parent="1">
          <mxGeometry x="90" y="457" width="80" height="20" as="geometry" />
        </mxCell>
        <mxCell id="wU12SF3ZgLvrXuc0s74N-12" value="Home PLMN" style="text;html=1;align=center;verticalAlign=middle;resizable=0;points=[];autosize=1;strokeColor=none;fillColor=none;fontSize=11;" vertex="1" parent="1">
          <mxGeometry x="330" y="457" width="80" height="20" as="geometry" />
        </mxCell>
        <mxCell id="wU12SF3ZgLvrXuc0s74N-13" value="" style="shape=image;html=1;verticalAlign=top;verticalLabelPosition=bottom;labelBackgroundColor=#ffffff;imageAspect=0;aspect=fixed;image=https://cdn2.iconfinder.com/data/icons/lullacons/arrow-single-right-green.png;fontSize=11;strokeWidth=1;fillColor=none;" vertex="1" parent="1">
          <mxGeometry x="75" y="500" width="35" height="35" as="geometry" />
        </mxCell>
        <mxCell id="wU12SF3ZgLvrXuc0s74N-14" value="" style="shape=image;html=1;verticalAlign=top;verticalLabelPosition=bottom;labelBackgroundColor=#ffffff;imageAspect=0;aspect=fixed;image=https://cdn2.iconfinder.com/data/icons/lullacons/arrow-single-right-green.png;fontSize=11;strokeWidth=1;fillColor=none;" vertex="1" parent="1">
          <mxGeometry x="75" y="550" width="35" height="35" as="geometry" />
        </mxCell>
        <mxCell id="wU12SF3ZgLvrXuc0s74N-15" value="" style="shape=image;html=1;verticalAlign=top;verticalLabelPosition=bottom;labelBackgroundColor=#ffffff;imageAspect=0;aspect=fixed;image=https://cdn2.iconfinder.com/data/icons/lullacons/arrow-single-right-green.png;fontSize=11;strokeWidth=1;fillColor=none;" vertex="1" parent="1">
          <mxGeometry x="75" y="610" width="35" height="35" as="geometry" />
        </mxCell>
        <mxCell id="wU12SF3ZgLvrXuc0s74N-17" value="" style="shape=image;html=1;verticalAlign=top;verticalLabelPosition=bottom;labelBackgroundColor=#ffffff;imageAspect=0;aspect=fixed;image=https://cdn4.iconfinder.com/data/icons/spirit20/bullet-red.png;fontSize=11;strokeWidth=1;fillColor=none;" vertex="1" parent="1">
          <mxGeometry x="300" y="485" width="50" height="50" as="geometry" />
        </mxCell>
        <mxCell id="wU12SF3ZgLvrXuc0s74N-18" value="" style="shape=image;html=1;verticalAlign=top;verticalLabelPosition=bottom;labelBackgroundColor=#ffffff;imageAspect=0;aspect=fixed;image=https://cdn4.iconfinder.com/data/icons/spirit20/bullet-red.png;fontSize=11;strokeWidth=1;fillColor=none;" vertex="1" parent="1">
          <mxGeometry x="300" y="535" width="50" height="50" as="geometry" />
        </mxCell>
        <mxCell id="wU12SF3ZgLvrXuc0s74N-19" value="" style="shape=image;html=1;verticalAlign=top;verticalLabelPosition=bottom;labelBackgroundColor=#ffffff;imageAspect=0;aspect=fixed;image=https://cdn4.iconfinder.com/data/icons/spirit20/bullet-red.png;fontSize=11;strokeWidth=1;fillColor=none;" vertex="1" parent="1">
          <mxGeometry x="300" y="585" width="50" height="50" as="geometry" />
        </mxCell>
        <mxCell id="wU12SF3ZgLvrXuc0s74N-20" value="Access to Core functions" style="text;html=1;align=center;verticalAlign=middle;resizable=0;points=[];autosize=1;strokeColor=none;fillColor=none;fontSize=15;" vertex="1" parent="1">
          <mxGeometry x="114" y="507.5" width="180" height="20" as="geometry" />
        </mxCell>
        <mxCell id="wU12SF3ZgLvrXuc0s74N-21" value="Signaling vulnerabilities" style="text;html=1;align=center;verticalAlign=middle;resizable=0;points=[];autosize=1;strokeColor=none;fillColor=none;fontSize=15;" vertex="1" parent="1">
          <mxGeometry x="110" y="557.5" width="170" height="20" as="geometry" />
        </mxCell>
        <mxCell id="wU12SF3ZgLvrXuc0s74N-22" value="Inadequate Controls" style="text;html=1;align=center;verticalAlign=middle;resizable=0;points=[];autosize=1;strokeColor=none;fillColor=none;fontSize=15;" vertex="1" parent="1">
          <mxGeometry x="110" y="610" width="150" height="20" as="geometry" />
        </mxCell>
        <mxCell id="wU12SF3ZgLvrXuc0s74N-23" value="&lt;div align=&quot;left&quot;&gt;Fraud&lt;/div&gt;" style="text;html=1;align=left;verticalAlign=middle;resizable=0;points=[];autosize=1;strokeColor=none;fillColor=none;fontSize=15;" vertex="1" parent="1">
          <mxGeometry x="345" y="505.5" width="50" height="20" as="geometry" />
        </mxCell>
        <mxCell id="wU12SF3ZgLvrXuc0s74N-24" value="DDOS" style="text;html=1;align=left;verticalAlign=middle;resizable=0;points=[];autosize=1;strokeColor=none;fillColor=none;fontSize=15;" vertex="1" parent="1">
          <mxGeometry x="348" y="557.5" width="60" height="20" as="geometry" />
        </mxCell>
        <mxCell id="wU12SF3ZgLvrXuc0s74N-25" value="Disrupt Billing" style="text;html=1;align=left;verticalAlign=middle;resizable=0;points=[];autosize=1;strokeColor=none;fillColor=none;fontSize=15;" vertex="1" parent="1">
          <mxGeometry x="348" y="606" width="110" height="20" as="geometry" />
        </mxCell>
      </root>
    </mxGraphModel>
  </diagram>
  <diagram id="245plKQQwZlfioGF_DDY" name="6-roaming-2">
    <mxGraphModel dx="1296" dy="669" grid="0" gridSize="10" guides="1" tooltips="1" connect="1" arrows="1" fold="1" page="1" pageScale="1" pageWidth="850" pageHeight="1100" math="0" shadow="0">
      <root>
        <mxCell id="0" />
        <mxCell id="1" parent="0" />
        <mxCell id="0eFwIL4glZl67eTFcFQ4-24" value="" style="endArrow=none;html=1;fontSize=15;strokeWidth=2;curved=1;exitX=0;exitY=0.5;exitDx=0;exitDy=0;" edge="1" parent="1" source="0eFwIL4glZl67eTFcFQ4-21">
          <mxGeometry width="50" height="50" relative="1" as="geometry">
            <mxPoint x="423" y="330" as="sourcePoint" />
            <mxPoint x="473" y="280" as="targetPoint" />
          </mxGeometry>
        </mxCell>
        <mxCell id="0eFwIL4glZl67eTFcFQ4-2" value="" style="endArrow=none;html=1;fontSize=15;strokeWidth=2;curved=1;" edge="1" parent="1">
          <mxGeometry width="50" height="50" relative="1" as="geometry">
            <mxPoint x="80" y="280" as="sourcePoint" />
            <mxPoint x="350" y="280" as="targetPoint" />
          </mxGeometry>
        </mxCell>
        <mxCell id="0eFwIL4glZl67eTFcFQ4-3" value="" style="endArrow=none;html=1;fontSize=15;strokeWidth=2;curved=1;" edge="1" parent="1">
          <mxGeometry width="50" height="50" relative="1" as="geometry">
            <mxPoint x="120" y="340" as="sourcePoint" />
            <mxPoint x="120" y="280" as="targetPoint" />
          </mxGeometry>
        </mxCell>
        <mxCell id="0eFwIL4glZl67eTFcFQ4-4" value="" style="endArrow=none;html=1;fontSize=15;strokeWidth=2;curved=1;" edge="1" parent="1">
          <mxGeometry width="50" height="50" relative="1" as="geometry">
            <mxPoint x="200" y="340" as="sourcePoint" />
            <mxPoint x="200" y="280" as="targetPoint" />
          </mxGeometry>
        </mxCell>
        <mxCell id="0eFwIL4glZl67eTFcFQ4-5" value="" style="endArrow=none;html=1;fontSize=15;strokeWidth=2;curved=1;" edge="1" parent="1">
          <mxGeometry width="50" height="50" relative="1" as="geometry">
            <mxPoint x="280" y="340" as="sourcePoint" />
            <mxPoint x="280" y="280" as="targetPoint" />
          </mxGeometry>
        </mxCell>
        <mxCell id="0eFwIL4glZl67eTFcFQ4-6" value="" style="endArrow=none;html=1;fontSize=15;strokeWidth=2;curved=1;" edge="1" parent="1">
          <mxGeometry width="50" height="50" relative="1" as="geometry">
            <mxPoint x="160" y="280" as="sourcePoint" />
            <mxPoint x="160" y="220" as="targetPoint" />
          </mxGeometry>
        </mxCell>
        <mxCell id="0eFwIL4glZl67eTFcFQ4-7" value="" style="endArrow=none;html=1;fontSize=15;strokeWidth=2;curved=1;" edge="1" parent="1">
          <mxGeometry width="50" height="50" relative="1" as="geometry">
            <mxPoint x="240" y="280" as="sourcePoint" />
            <mxPoint x="240" y="220" as="targetPoint" />
          </mxGeometry>
        </mxCell>
        <mxCell id="0eFwIL4glZl67eTFcFQ4-8" value="NRF" style="rounded=1;whiteSpace=wrap;html=1;fontSize=15;strokeWidth=1;fillColor=#1ba1e2;fontColor=#ffffff;strokeColor=#006EAF;" vertex="1" parent="1">
          <mxGeometry x="140" y="190" width="50" height="30" as="geometry" />
        </mxCell>
        <mxCell id="0eFwIL4glZl67eTFcFQ4-9" value="AF" style="rounded=1;whiteSpace=wrap;html=1;fontSize=15;strokeWidth=1;fillColor=#1ba1e2;fontColor=#ffffff;strokeColor=#006EAF;" vertex="1" parent="1">
          <mxGeometry x="220" y="190" width="50" height="30" as="geometry" />
        </mxCell>
        <mxCell id="0eFwIL4glZl67eTFcFQ4-11" value="SEPP" style="rounded=1;whiteSpace=wrap;html=1;fontSize=15;strokeWidth=1;fillColor=#1ba1e2;fontColor=#ffffff;strokeColor=#006EAF;" vertex="1" parent="1">
          <mxGeometry x="330" y="260" width="50" height="30" as="geometry" />
        </mxCell>
        <mxCell id="0eFwIL4glZl67eTFcFQ4-12" value="AUSF" style="rounded=1;whiteSpace=wrap;html=1;fontSize=15;strokeWidth=1;fillColor=#1ba1e2;fontColor=#ffffff;strokeColor=#006EAF;" vertex="1" parent="1">
          <mxGeometry x="100" y="340" width="50" height="30" as="geometry" />
        </mxCell>
        <mxCell id="0eFwIL4glZl67eTFcFQ4-13" value="AMF" style="rounded=1;whiteSpace=wrap;html=1;fontSize=15;strokeWidth=1;fillColor=#1ba1e2;fontColor=#ffffff;strokeColor=#006EAF;" vertex="1" parent="1">
          <mxGeometry x="180" y="340" width="50" height="30" as="geometry" />
        </mxCell>
        <mxCell id="0eFwIL4glZl67eTFcFQ4-14" value="SMF" style="rounded=1;whiteSpace=wrap;html=1;fontSize=15;strokeWidth=1;fillColor=#1ba1e2;fontColor=#ffffff;strokeColor=#006EAF;" vertex="1" parent="1">
          <mxGeometry x="260" y="340" width="50" height="30" as="geometry" />
        </mxCell>
        <mxCell id="0eFwIL4glZl67eTFcFQ4-15" value="UDM" style="rounded=1;whiteSpace=wrap;html=1;fontSize=15;strokeWidth=1;fillColor=#1ba1e2;fontColor=#ffffff;strokeColor=#006EAF;" vertex="1" parent="1">
          <mxGeometry x="613" y="340" width="50" height="30" as="geometry" />
        </mxCell>
        <mxCell id="0eFwIL4glZl67eTFcFQ4-16" value="" style="endArrow=none;html=1;fontSize=15;strokeWidth=2;curved=1;startArrow=none;" edge="1" parent="1" source="0eFwIL4glZl67eTFcFQ4-22">
          <mxGeometry width="50" height="50" relative="1" as="geometry">
            <mxPoint x="513" y="280" as="sourcePoint" />
            <mxPoint x="783" y="280" as="targetPoint" />
          </mxGeometry>
        </mxCell>
        <mxCell id="0eFwIL4glZl67eTFcFQ4-17" value="" style="endArrow=none;html=1;fontSize=15;strokeWidth=2;curved=1;" edge="1" parent="1">
          <mxGeometry width="50" height="50" relative="1" as="geometry">
            <mxPoint x="553" y="280" as="sourcePoint" />
            <mxPoint x="553" y="220" as="targetPoint" />
          </mxGeometry>
        </mxCell>
        <mxCell id="0eFwIL4glZl67eTFcFQ4-18" value="" style="endArrow=none;html=1;fontSize=15;strokeWidth=2;curved=1;" edge="1" parent="1">
          <mxGeometry width="50" height="50" relative="1" as="geometry">
            <mxPoint x="633" y="340" as="sourcePoint" />
            <mxPoint x="633" y="280" as="targetPoint" />
          </mxGeometry>
        </mxCell>
        <mxCell id="0eFwIL4glZl67eTFcFQ4-19" value="" style="endArrow=none;html=1;fontSize=15;strokeWidth=2;curved=1;" edge="1" parent="1">
          <mxGeometry width="50" height="50" relative="1" as="geometry">
            <mxPoint x="703" y="280" as="sourcePoint" />
            <mxPoint x="703" y="220" as="targetPoint" />
          </mxGeometry>
        </mxCell>
        <mxCell id="0eFwIL4glZl67eTFcFQ4-21" value="" style="shape=image;html=1;verticalAlign=top;verticalLabelPosition=bottom;labelBackgroundColor=#ffffff;imageAspect=0;aspect=fixed;image=https://cdn2.iconfinder.com/data/icons/circle-icons-1/64/flame-128.png;fontSize=15;strokeWidth=1;fillColor=none;" vertex="1" parent="1">
          <mxGeometry x="370" y="266" width="28" height="28" as="geometry" />
        </mxCell>
        <mxCell id="0eFwIL4glZl67eTFcFQ4-22" value="" style="shape=image;html=1;verticalAlign=top;verticalLabelPosition=bottom;labelBackgroundColor=#ffffff;imageAspect=0;aspect=fixed;image=https://cdn2.iconfinder.com/data/icons/circle-icons-1/64/flame-128.png;fontSize=15;strokeWidth=1;fillColor=none;" vertex="1" parent="1">
          <mxGeometry x="520" y="265" width="28" height="28" as="geometry" />
        </mxCell>
        <mxCell id="0eFwIL4glZl67eTFcFQ4-23" value="" style="endArrow=none;html=1;fontSize=15;strokeWidth=2;curved=1;" edge="1" parent="1" target="0eFwIL4glZl67eTFcFQ4-22">
          <mxGeometry width="50" height="50" relative="1" as="geometry">
            <mxPoint x="513" y="280" as="sourcePoint" />
            <mxPoint x="783" y="280" as="targetPoint" />
          </mxGeometry>
        </mxCell>
        <mxCell id="0eFwIL4glZl67eTFcFQ4-10" value="SEPP" style="rounded=1;whiteSpace=wrap;html=1;fontSize=15;strokeWidth=1;fillColor=#1ba1e2;fontColor=#ffffff;strokeColor=#006EAF;" vertex="1" parent="1">
          <mxGeometry x="473" y="264" width="50" height="30" as="geometry" />
        </mxCell>
        <mxCell id="0eFwIL4glZl67eTFcFQ4-25" value="N32" style="text;html=1;align=center;verticalAlign=middle;resizable=0;points=[];autosize=1;strokeColor=none;fillColor=none;fontSize=15;" vertex="1" parent="1">
          <mxGeometry x="420" y="260" width="40" height="20" as="geometry" />
        </mxCell>
        <mxCell id="0eFwIL4glZl67eTFcFQ4-26" value="AUSF" style="rounded=1;whiteSpace=wrap;html=1;fontSize=15;strokeWidth=1;fillColor=#1ba1e2;fontColor=#ffffff;strokeColor=#006EAF;" vertex="1" parent="1">
          <mxGeometry x="523" y="190" width="50" height="30" as="geometry" />
        </mxCell>
        <mxCell id="0eFwIL4glZl67eTFcFQ4-28" value="NRF" style="rounded=1;whiteSpace=wrap;html=1;fontSize=15;strokeWidth=1;fillColor=#1ba1e2;fontColor=#ffffff;strokeColor=#006EAF;" vertex="1" parent="1">
          <mxGeometry x="680" y="190" width="50" height="30" as="geometry" />
        </mxCell>
        <mxCell id="0eFwIL4glZl67eTFcFQ4-29" value="" style="rounded=1;whiteSpace=wrap;html=1;fontSize=15;strokeWidth=2;fillColor=none;" vertex="1" parent="1">
          <mxGeometry x="60" y="180" width="320" height="230" as="geometry" />
        </mxCell>
        <mxCell id="0eFwIL4glZl67eTFcFQ4-30" value="Visiting PLMN 5G Core" style="text;html=1;align=center;verticalAlign=middle;resizable=0;points=[];autosize=1;strokeColor=none;fillColor=none;fontSize=15;" vertex="1" parent="1">
          <mxGeometry x="200" y="380" width="170" height="20" as="geometry" />
        </mxCell>
        <mxCell id="0eFwIL4glZl67eTFcFQ4-31" value="" style="rounded=1;whiteSpace=wrap;html=1;fontSize=15;strokeWidth=2;fillColor=none;" vertex="1" parent="1">
          <mxGeometry x="500" y="174" width="320" height="230" as="geometry" />
        </mxCell>
        <mxCell id="0eFwIL4glZl67eTFcFQ4-32" value="Home PLMN 5G Core" style="text;html=1;align=center;verticalAlign=middle;resizable=0;points=[];autosize=1;strokeColor=none;fillColor=none;fontSize=15;" vertex="1" parent="1">
          <mxGeometry x="515" y="380" width="160" height="20" as="geometry" />
        </mxCell>
        <mxCell id="0eFwIL4glZl67eTFcFQ4-33" value="Security Edge Protection Proxy (SEPP)" style="text;html=1;align=center;verticalAlign=middle;resizable=0;points=[];autosize=1;strokeColor=none;fillColor=none;fontSize=23;" vertex="1" parent="1">
          <mxGeometry x="80" y="425" width="420" height="30" as="geometry" />
        </mxCell>
        <mxCell id="0eFwIL4glZl67eTFcFQ4-34" value="" style="shape=image;html=1;verticalAlign=top;verticalLabelPosition=bottom;labelBackgroundColor=#ffffff;imageAspect=0;aspect=fixed;image=https://cdn2.iconfinder.com/data/icons/lullacons/arrow-single-right-green.png;fontSize=23;strokeWidth=2;fillColor=none;" vertex="1" parent="1">
          <mxGeometry x="90" y="470" width="40" height="40" as="geometry" />
        </mxCell>
        <mxCell id="0eFwIL4glZl67eTFcFQ4-35" value="" style="shape=image;html=1;verticalAlign=top;verticalLabelPosition=bottom;labelBackgroundColor=#ffffff;imageAspect=0;aspect=fixed;image=https://cdn2.iconfinder.com/data/icons/lullacons/arrow-single-right-green.png;fontSize=23;strokeWidth=2;fillColor=none;" vertex="1" parent="1">
          <mxGeometry x="90" y="520" width="40" height="40" as="geometry" />
        </mxCell>
        <mxCell id="0eFwIL4glZl67eTFcFQ4-36" value="" style="shape=image;html=1;verticalAlign=top;verticalLabelPosition=bottom;labelBackgroundColor=#ffffff;imageAspect=0;aspect=fixed;image=https://cdn2.iconfinder.com/data/icons/lullacons/arrow-single-right-green.png;fontSize=23;strokeWidth=2;fillColor=none;" vertex="1" parent="1">
          <mxGeometry x="90" y="570" width="40" height="40" as="geometry" />
        </mxCell>
        <mxCell id="0eFwIL4glZl67eTFcFQ4-37" value="Protect signaling trafic across operator networks" style="text;html=1;align=center;verticalAlign=middle;resizable=0;points=[];autosize=1;strokeColor=none;fillColor=none;fontSize=23;" vertex="1" parent="1">
          <mxGeometry x="125" y="474" width="510" height="30" as="geometry" />
        </mxCell>
        <mxCell id="0eFwIL4glZl67eTFcFQ4-38" value="&lt;div&gt;Authentication protection&lt;br&gt;&lt;/div&gt;" style="text;html=1;align=left;verticalAlign=middle;resizable=0;points=[];autosize=1;strokeColor=none;fillColor=none;fontSize=23;" vertex="1" parent="1">
          <mxGeometry x="138" y="525" width="270" height="30" as="geometry" />
        </mxCell>
        <mxCell id="0eFwIL4glZl67eTFcFQ4-39" value="Secure Application level security protocol" style="text;html=1;align=left;verticalAlign=middle;resizable=0;points=[];autosize=1;strokeColor=none;fillColor=none;fontSize=23;" vertex="1" parent="1">
          <mxGeometry x="136" y="580" width="430" height="30" as="geometry" />
        </mxCell>
      </root>
    </mxGraphModel>
  </diagram>
  <diagram id="ACMEovugdgyFUp7VlK_x" name="7-Roaming-3">
    <mxGraphModel dx="1102" dy="569" grid="0" gridSize="10" guides="1" tooltips="1" connect="1" arrows="1" fold="1" page="1" pageScale="1" pageWidth="850" pageHeight="1100" math="0" shadow="0">
      <root>
        <mxCell id="0" />
        <mxCell id="1" parent="0" />
        <mxCell id="QFQusRIQN16xhBHRcbQL-21" value="" style="rounded=1;whiteSpace=wrap;html=1;fontSize=18;strokeWidth=2;fillColor=none;dashed=1;" vertex="1" parent="1">
          <mxGeometry x="20" y="313" width="790" height="160" as="geometry" />
        </mxCell>
        <mxCell id="ysTH4Z07QyJeflGjElln-1" value="" style="rounded=1;whiteSpace=wrap;html=1;fontSize=15;strokeWidth=2;fillColor=none;" vertex="1" parent="1">
          <mxGeometry x="60" y="63" width="310" height="196" as="geometry" />
        </mxCell>
        <mxCell id="FhC6QAcRK02vK-PMQInd-1" value="SGW/AMF" style="rounded=1;whiteSpace=wrap;html=1;fontSize=11;strokeWidth=1;fillColor=#dae8fc;strokeColor=#6c8ebf;" vertex="1" parent="1">
          <mxGeometry x="230" y="363" width="70" height="20" as="geometry" />
        </mxCell>
        <mxCell id="FhC6QAcRK02vK-PMQInd-2" value="PGW/UPF" style="rounded=1;whiteSpace=wrap;html=1;fontSize=11;strokeWidth=1;fillColor=#dae8fc;strokeColor=#6c8ebf;" vertex="1" parent="1">
          <mxGeometry x="130" y="363" width="70" height="20" as="geometry" />
        </mxCell>
        <mxCell id="FhC6QAcRK02vK-PMQInd-3" value="HSS/UDM" style="rounded=1;whiteSpace=wrap;html=1;fontSize=11;strokeWidth=1;fillColor=#dae8fc;strokeColor=#6c8ebf;" vertex="1" parent="1">
          <mxGeometry x="190" y="403" width="70" height="30" as="geometry" />
        </mxCell>
        <mxCell id="FhC6QAcRK02vK-PMQInd-4" value="PCF" style="rounded=1;whiteSpace=wrap;html=1;fontSize=11;strokeWidth=1;fillColor=#dae8fc;strokeColor=#6c8ebf;" vertex="1" parent="1">
          <mxGeometry x="370" y="413" width="40" height="20" as="geometry" />
        </mxCell>
        <mxCell id="FhC6QAcRK02vK-PMQInd-5" value="HSS/UDM" style="rounded=1;whiteSpace=wrap;html=1;fontSize=11;strokeWidth=1;fillColor=#dae8fc;strokeColor=#6c8ebf;" vertex="1" parent="1">
          <mxGeometry x="571" y="413" width="70" height="20" as="geometry" />
        </mxCell>
        <mxCell id="FhC6QAcRK02vK-PMQInd-6" value="SGW/AMF" style="rounded=1;whiteSpace=wrap;html=1;fontSize=11;strokeWidth=1;fillColor=#dae8fc;strokeColor=#6c8ebf;" vertex="1" parent="1">
          <mxGeometry x="521" y="353" width="70" height="20" as="geometry" />
        </mxCell>
        <mxCell id="FhC6QAcRK02vK-PMQInd-7" value="SGW/UPF" style="rounded=1;whiteSpace=wrap;html=1;fontSize=11;strokeWidth=1;fillColor=#dae8fc;strokeColor=#6c8ebf;" vertex="1" parent="1">
          <mxGeometry x="621" y="353" width="70" height="20" as="geometry" />
        </mxCell>
        <mxCell id="FhC6QAcRK02vK-PMQInd-8" value="GTP-FW" style="rounded=1;whiteSpace=wrap;html=1;fontSize=18;strokeWidth=1;fillColor=#dae8fc;strokeColor=#6c8ebf;" vertex="1" parent="1">
          <mxGeometry x="230" y="293" width="120" height="30" as="geometry" />
        </mxCell>
        <mxCell id="FhC6QAcRK02vK-PMQInd-9" value="Diameter FW" style="rounded=1;whiteSpace=wrap;html=1;fontSize=18;strokeWidth=1;fillColor=#dae8fc;strokeColor=#6c8ebf;" vertex="1" parent="1">
          <mxGeometry x="50" y="293" width="120" height="30" as="geometry" />
        </mxCell>
        <mxCell id="FhC6QAcRK02vK-PMQInd-10" value="3GPP SEPP" style="rounded=1;whiteSpace=wrap;html=1;fontSize=18;strokeWidth=1;fillColor=#dae8fc;strokeColor=#6c8ebf;" vertex="1" parent="1">
          <mxGeometry x="586" y="293" width="120" height="30" as="geometry" />
        </mxCell>
        <mxCell id="ysTH4Z07QyJeflGjElln-2" value="Visiting PLMN 4G Core" style="text;html=1;align=center;verticalAlign=middle;resizable=0;points=[];autosize=1;strokeColor=none;fillColor=none;fontSize=15;" vertex="1" parent="1">
          <mxGeometry x="190" y="229" width="170" height="20" as="geometry" />
        </mxCell>
        <mxCell id="ysTH4Z07QyJeflGjElln-3" value="" style="rounded=1;whiteSpace=wrap;html=1;fontSize=15;strokeWidth=2;fillColor=none;" vertex="1" parent="1">
          <mxGeometry x="480" y="63" width="330" height="190" as="geometry" />
        </mxCell>
        <mxCell id="ysTH4Z07QyJeflGjElln-4" value="Visiting PLMN 5G Core" style="text;html=1;align=center;verticalAlign=middle;resizable=0;points=[];autosize=1;strokeColor=none;fillColor=none;fontSize=15;" vertex="1" parent="1">
          <mxGeometry x="500" y="229" width="170" height="20" as="geometry" />
        </mxCell>
        <mxCell id="QFQusRIQN16xhBHRcbQL-1" value="" style="verticalLabelPosition=bottom;html=1;verticalAlign=top;align=center;strokeColor=none;fillColor=#00BEF2;shape=mxgraph.azure.mobile;pointerEvents=1;" vertex="1" parent="1">
          <mxGeometry x="410" y="33" width="35" height="50" as="geometry" />
        </mxCell>
        <mxCell id="QFQusRIQN16xhBHRcbQL-2" value="" style="endArrow=none;html=1;fontSize=18;strokeWidth=2;curved=1;entryX=0.265;entryY=0.002;entryDx=0;entryDy=0;entryPerimeter=0;exitX=1;exitY=0.25;exitDx=0;exitDy=0;" edge="1" parent="1" source="QFQusRIQN16xhBHRcbQL-5" target="ysTH4Z07QyJeflGjElln-1">
          <mxGeometry width="50" height="50" relative="1" as="geometry">
            <mxPoint x="70" y="53" as="sourcePoint" />
            <mxPoint x="130" y="53" as="targetPoint" />
            <Array as="points">
              <mxPoint x="90" y="23" />
            </Array>
          </mxGeometry>
        </mxCell>
        <mxCell id="QFQusRIQN16xhBHRcbQL-3" value="" style="verticalLabelPosition=bottom;html=1;verticalAlign=top;align=center;strokeColor=none;fillColor=#00BEF2;shape=mxgraph.azure.mobile;pointerEvents=1;" vertex="1" parent="1">
          <mxGeometry x="25" y="43" width="35" height="50" as="geometry" />
        </mxCell>
        <mxCell id="QFQusRIQN16xhBHRcbQL-5" value="" style="shape=image;html=1;verticalAlign=top;verticalLabelPosition=bottom;labelBackgroundColor=#ffffff;imageAspect=0;aspect=fixed;image=https://cdn4.iconfinder.com/data/icons/internet-networking-and-communication-glyph-24/24/Communication_tower_signal_tower_wifi_antenna_wifi_tower_wireless_antenna-128.png;fontSize=18;strokeWidth=2;fillColor=none;" vertex="1" parent="1">
          <mxGeometry x="50" y="33" width="18" height="18" as="geometry" />
        </mxCell>
        <mxCell id="QFQusRIQN16xhBHRcbQL-6" value="" style="shape=image;html=1;verticalAlign=top;verticalLabelPosition=bottom;labelBackgroundColor=#ffffff;imageAspect=0;aspect=fixed;image=https://cdn4.iconfinder.com/data/icons/internet-networking-and-communication-glyph-24/24/Communication_tower_signal_tower_wifi_antenna_wifi_tower_wireless_antenna-128.png;fontSize=18;strokeWidth=2;fillColor=none;" vertex="1" parent="1">
          <mxGeometry x="440" y="23" width="18" height="18" as="geometry" />
        </mxCell>
        <mxCell id="QFQusRIQN16xhBHRcbQL-7" value="" style="shape=image;html=1;verticalAlign=top;verticalLabelPosition=bottom;labelBackgroundColor=#ffffff;imageAspect=0;aspect=fixed;image=https://cdn4.iconfinder.com/data/icons/internet-networking-and-communication-glyph-24/24/Communication_tower_signal_tower_wifi_antenna_wifi_tower_wireless_antenna-128.png;fontSize=18;strokeWidth=2;fillColor=none;" vertex="1" parent="1">
          <mxGeometry x="392" y="23" width="18" height="18" as="geometry" />
        </mxCell>
        <mxCell id="QFQusRIQN16xhBHRcbQL-8" value="" style="endArrow=none;html=1;fontSize=18;strokeWidth=2;curved=1;exitX=0.871;exitY=0;exitDx=0;exitDy=0;exitPerimeter=0;" edge="1" parent="1" source="ysTH4Z07QyJeflGjElln-1">
          <mxGeometry width="50" height="50" relative="1" as="geometry">
            <mxPoint x="330" y="53" as="sourcePoint" />
            <mxPoint x="392" y="33" as="targetPoint" />
            <Array as="points">
              <mxPoint x="350" y="23" />
            </Array>
          </mxGeometry>
        </mxCell>
        <mxCell id="QFQusRIQN16xhBHRcbQL-9" value="" style="endArrow=none;html=1;fontSize=18;strokeWidth=2;curved=1;exitX=0.209;exitY=-0.009;exitDx=0;exitDy=0;exitPerimeter=0;" edge="1" parent="1" source="ysTH4Z07QyJeflGjElln-3">
          <mxGeometry width="50" height="50" relative="1" as="geometry">
            <mxPoint x="400" y="83" as="sourcePoint" />
            <mxPoint x="450" y="33" as="targetPoint" />
            <Array as="points">
              <mxPoint x="520" y="23" />
            </Array>
          </mxGeometry>
        </mxCell>
        <mxCell id="QFQusRIQN16xhBHRcbQL-10" value="" style="verticalLabelPosition=bottom;html=1;verticalAlign=top;align=center;strokeColor=none;fillColor=#00BEF2;shape=mxgraph.azure.mobile;pointerEvents=1;" vertex="1" parent="1">
          <mxGeometry x="810" y="43" width="20" height="40" as="geometry" />
        </mxCell>
        <mxCell id="QFQusRIQN16xhBHRcbQL-11" value="" style="shape=image;html=1;verticalAlign=top;verticalLabelPosition=bottom;labelBackgroundColor=#ffffff;imageAspect=0;aspect=fixed;image=https://cdn4.iconfinder.com/data/icons/internet-networking-and-communication-glyph-24/24/Communication_tower_signal_tower_wifi_antenna_wifi_tower_wireless_antenna-128.png;fontSize=18;strokeWidth=2;fillColor=none;" vertex="1" parent="1">
          <mxGeometry x="792" y="33" width="18" height="18" as="geometry" />
        </mxCell>
        <mxCell id="QFQusRIQN16xhBHRcbQL-12" value="" style="endArrow=none;html=1;fontSize=18;strokeWidth=2;curved=1;exitX=0.78;exitY=-0.009;exitDx=0;exitDy=0;exitPerimeter=0;" edge="1" parent="1" source="ysTH4Z07QyJeflGjElln-3">
          <mxGeometry width="50" height="50" relative="1" as="geometry">
            <mxPoint x="742" y="93" as="sourcePoint" />
            <mxPoint x="792" y="43" as="targetPoint" />
            <Array as="points">
              <mxPoint x="750" y="33" />
            </Array>
          </mxGeometry>
        </mxCell>
        <mxCell id="QFQusRIQN16xhBHRcbQL-13" value="" style="shape=image;html=1;verticalAlign=top;verticalLabelPosition=bottom;labelBackgroundColor=#ffffff;imageAspect=0;aspect=fixed;image=https://cdn0.iconfinder.com/data/icons/call-center-and-service/32/44-Antenna-128.png;fontSize=18;strokeWidth=2;fillColor=none;" vertex="1" parent="1">
          <mxGeometry x="520" y="83" width="68" height="68" as="geometry" />
        </mxCell>
        <mxCell id="QFQusRIQN16xhBHRcbQL-14" value="" style="shape=image;html=1;verticalAlign=top;verticalLabelPosition=bottom;labelBackgroundColor=#ffffff;imageAspect=0;aspect=fixed;image=https://cdn0.iconfinder.com/data/icons/call-center-and-service/32/44-Antenna-128.png;fontSize=18;strokeWidth=2;fillColor=none;" vertex="1" parent="1">
          <mxGeometry x="700" y="74" width="68" height="68" as="geometry" />
        </mxCell>
        <mxCell id="QFQusRIQN16xhBHRcbQL-15" value="" style="shape=image;html=1;verticalAlign=top;verticalLabelPosition=bottom;labelBackgroundColor=#ffffff;imageAspect=0;aspect=fixed;image=https://cdn0.iconfinder.com/data/icons/call-center-and-service/32/44-Antenna-128.png;fontSize=18;strokeWidth=2;fillColor=none;" vertex="1" parent="1">
          <mxGeometry x="80" y="83" width="68" height="68" as="geometry" />
        </mxCell>
        <mxCell id="QFQusRIQN16xhBHRcbQL-16" value="" style="shape=image;html=1;verticalAlign=top;verticalLabelPosition=bottom;labelBackgroundColor=#ffffff;imageAspect=0;aspect=fixed;image=https://cdn0.iconfinder.com/data/icons/call-center-and-service/32/44-Antenna-128.png;fontSize=18;strokeWidth=2;fillColor=none;" vertex="1" parent="1">
          <mxGeometry x="256" y="83" width="68" height="68" as="geometry" />
        </mxCell>
        <mxCell id="QFQusRIQN16xhBHRcbQL-17" value="" style="shape=image;html=1;verticalAlign=top;verticalLabelPosition=bottom;labelBackgroundColor=#ffffff;imageAspect=0;aspect=fixed;image=https://cdn2.iconfinder.com/data/icons/circle-icons-1/64/flame-128.png;fontSize=18;strokeWidth=2;fillColor=none;" vertex="1" parent="1">
          <mxGeometry x="168" y="295" width="28" height="28" as="geometry" />
        </mxCell>
        <mxCell id="QFQusRIQN16xhBHRcbQL-18" value="" style="shape=image;html=1;verticalAlign=top;verticalLabelPosition=bottom;labelBackgroundColor=#ffffff;imageAspect=0;aspect=fixed;image=https://cdn2.iconfinder.com/data/icons/circle-icons-1/64/flame-128.png;fontSize=18;strokeWidth=2;fillColor=none;" vertex="1" parent="1">
          <mxGeometry x="348" y="293" width="28" height="28" as="geometry" />
        </mxCell>
        <mxCell id="QFQusRIQN16xhBHRcbQL-19" value="" style="shape=image;html=1;verticalAlign=top;verticalLabelPosition=bottom;labelBackgroundColor=#ffffff;imageAspect=0;aspect=fixed;image=https://cdn2.iconfinder.com/data/icons/circle-icons-1/64/flame-128.png;fontSize=18;strokeWidth=2;fillColor=none;" vertex="1" parent="1">
          <mxGeometry x="703" y="295" width="28" height="28" as="geometry" />
        </mxCell>
        <mxCell id="QFQusRIQN16xhBHRcbQL-20" value="Home PLMN" style="text;html=1;align=center;verticalAlign=middle;resizable=0;points=[];autosize=1;strokeColor=none;fillColor=none;fontSize=15;" vertex="1" parent="1">
          <mxGeometry x="415" y="323" width="100" height="20" as="geometry" />
        </mxCell>
        <mxCell id="QFQusRIQN16xhBHRcbQL-22" value="" style="endArrow=classic;html=1;fontSize=18;strokeWidth=2;curved=1;entryX=0.75;entryY=0;entryDx=0;entryDy=0;" edge="1" parent="1">
          <mxGeometry width="50" height="50" relative="1" as="geometry">
            <mxPoint x="140" y="267" as="sourcePoint" />
            <mxPoint x="140" y="287" as="targetPoint" />
          </mxGeometry>
        </mxCell>
        <mxCell id="QFQusRIQN16xhBHRcbQL-24" value="" style="endArrow=classic;html=1;fontSize=18;strokeWidth=2;curved=1;entryX=0.75;entryY=0;entryDx=0;entryDy=0;" edge="1" parent="1">
          <mxGeometry width="50" height="50" relative="1" as="geometry">
            <mxPoint x="289.8" y="267" as="sourcePoint" />
            <mxPoint x="289.8" y="287" as="targetPoint" />
          </mxGeometry>
        </mxCell>
        <mxCell id="QFQusRIQN16xhBHRcbQL-25" value="" style="endArrow=classic;html=1;fontSize=18;strokeWidth=2;curved=1;entryX=0.75;entryY=0;entryDx=0;entryDy=0;" edge="1" parent="1">
          <mxGeometry width="50" height="50" relative="1" as="geometry">
            <mxPoint x="600" y="259" as="sourcePoint" />
            <mxPoint x="600" y="279" as="targetPoint" />
          </mxGeometry>
        </mxCell>
        <mxCell id="QFQusRIQN16xhBHRcbQL-26" value="" style="endArrow=classic;html=1;fontSize=18;strokeWidth=2;curved=1;entryX=0.75;entryY=0;entryDx=0;entryDy=0;" edge="1" parent="1">
          <mxGeometry width="50" height="50" relative="1" as="geometry">
            <mxPoint x="703" y="259" as="sourcePoint" />
            <mxPoint x="703" y="279" as="targetPoint" />
          </mxGeometry>
        </mxCell>
      </root>
    </mxGraphModel>
  </diagram>
  <diagram id="jRXDPEUX2aywuhpmWkiX" name="8-DDOS-1">
    <mxGraphModel dx="918" dy="474" grid="0" gridSize="10" guides="1" tooltips="1" connect="1" arrows="1" fold="1" page="1" pageScale="1" pageWidth="850" pageHeight="1100" math="0" shadow="0">
      <root>
        <mxCell id="0" />
        <mxCell id="1" parent="0" />
        <mxCell id="axRxidtdj6RqYFoFORX3-4" value="" style="endArrow=classic;html=1;fontSize=18;strokeWidth=2;curved=1;entryX=0.086;entryY=0.407;entryDx=0;entryDy=0;entryPerimeter=0;fillColor=#e51400;strokeColor=#FF3333;" edge="1" parent="1">
          <mxGeometry width="50" height="50" relative="1" as="geometry">
            <mxPoint x="509" y="191.5" as="sourcePoint" />
            <mxPoint x="799.0200000000002" y="189.99" as="targetPoint" />
          </mxGeometry>
        </mxCell>
        <mxCell id="axRxidtdj6RqYFoFORX3-5" value="" style="endArrow=classic;html=1;fontSize=18;strokeWidth=2;curved=1;entryX=0.086;entryY=0.407;entryDx=0;entryDy=0;entryPerimeter=0;fillColor=#e51400;strokeColor=#FF3333;" edge="1" parent="1">
          <mxGeometry width="50" height="50" relative="1" as="geometry">
            <mxPoint x="508" y="216.5" as="sourcePoint" />
            <mxPoint x="798.0200000000002" y="214.99" as="targetPoint" />
          </mxGeometry>
        </mxCell>
        <mxCell id="axRxidtdj6RqYFoFORX3-6" value="" style="endArrow=classic;html=1;fontSize=18;strokeWidth=2;curved=1;entryX=0.086;entryY=0.407;entryDx=0;entryDy=0;entryPerimeter=0;fillColor=#e51400;strokeColor=#FF3333;" edge="1" parent="1">
          <mxGeometry width="50" height="50" relative="1" as="geometry">
            <mxPoint x="508" y="243.01" as="sourcePoint" />
            <mxPoint x="798.0200000000002" y="241.5" as="targetPoint" />
          </mxGeometry>
        </mxCell>
        <mxCell id="IuszdM8qc4TvNAA_Pq3Z-5" value="" style="rounded=1;whiteSpace=wrap;html=1;fontSize=18;strokeWidth=2;fillColor=none;" vertex="1" parent="1">
          <mxGeometry x="258" y="160" width="250" height="100" as="geometry" />
        </mxCell>
        <mxCell id="mmTz0WCp-LU-jP39c8tK-1" value="" style="rounded=1;whiteSpace=wrap;html=1;fontSize=22;fillColor=none;" vertex="1" parent="1">
          <mxGeometry x="18" y="160" width="130" height="100" as="geometry" />
        </mxCell>
        <mxCell id="mmTz0WCp-LU-jP39c8tK-2" value="" style="verticalLabelPosition=bottom;html=1;verticalAlign=top;align=center;strokeColor=none;fillColor=#00BEF2;shape=mxgraph.azure.mobile;pointerEvents=1;" vertex="1" parent="1">
          <mxGeometry x="77" y="219" width="21" height="31" as="geometry" />
        </mxCell>
        <mxCell id="mmTz0WCp-LU-jP39c8tK-3" value="" style="sketch=0;html=1;aspect=fixed;strokeColor=none;shadow=0;align=center;verticalAlign=top;fillColor=#3B8DF1;shape=mxgraph.gcp2.phone_android" vertex="1" parent="1">
          <mxGeometry x="37.1" y="219" width="16.8" height="30" as="geometry" />
        </mxCell>
        <mxCell id="mmTz0WCp-LU-jP39c8tK-4" value="" style="shape=mxgraph.signs.transportation.car_4;html=1;pointerEvents=1;fillColor=#000000;strokeColor=none;verticalLabelPosition=bottom;verticalAlign=top;align=center;fontSize=22;" vertex="1" parent="1">
          <mxGeometry x="118" y="201.5" width="19" height="15" as="geometry" />
        </mxCell>
        <mxCell id="mmTz0WCp-LU-jP39c8tK-5" value="" style="shape=image;html=1;verticalAlign=top;verticalLabelPosition=bottom;labelBackgroundColor=#ffffff;imageAspect=0;aspect=fixed;image=https://cdn4.iconfinder.com/data/icons/essentials-74/24/043_-_Smart_Watch-128.png;fontSize=22;fillColor=none;" vertex="1" parent="1">
          <mxGeometry x="33" y="175" width="30" height="30" as="geometry" />
        </mxCell>
        <mxCell id="mmTz0WCp-LU-jP39c8tK-6" value="" style="html=1;verticalLabelPosition=bottom;align=center;labelBackgroundColor=#ffffff;verticalAlign=top;strokeWidth=2;strokeColor=#0080F0;shadow=0;dashed=0;shape=mxgraph.ios7.icons.home;fontSize=22;fillColor=none;" vertex="1" parent="1">
          <mxGeometry x="88" y="175" width="24" height="25.5" as="geometry" />
        </mxCell>
        <mxCell id="2Vc2K_UGV2fWHfJUamMV-1" value="" style="shape=image;html=1;verticalAlign=top;verticalLabelPosition=bottom;labelBackgroundColor=#f1585c;imageAspect=0;aspect=fixed;image=https://cdn4.iconfinder.com/data/icons/internet-networking-and-communication-glyph-24/24/Communication_tower_signal_tower_wifi_antenna_wifi_tower_wireless_antenna-128.png;fontSize=18;strokeWidth=2;fillColor=none;rotation=90;" vertex="1" parent="1">
          <mxGeometry x="178" y="150" width="25" height="25" as="geometry" />
        </mxCell>
        <mxCell id="IuszdM8qc4TvNAA_Pq3Z-1" value="DU" style="rounded=1;whiteSpace=wrap;html=1;fontSize=19;strokeWidth=2;fillColor=#1ba1e2;strokeColor=#FF3333;fontColor=#ffffff;" vertex="1" parent="1">
          <mxGeometry x="268" y="180" width="100" height="46" as="geometry" />
        </mxCell>
        <mxCell id="IuszdM8qc4TvNAA_Pq3Z-2" value="DU" style="rounded=1;whiteSpace=wrap;html=1;fontSize=19;strokeWidth=2;fillColor=#1ba1e2;strokeColor=#FF3333;fontColor=#ffffff;" vertex="1" parent="1">
          <mxGeometry x="280" y="190" width="98" height="44" as="geometry" />
        </mxCell>
        <mxCell id="IuszdM8qc4TvNAA_Pq3Z-4" value="CU" style="rounded=1;whiteSpace=wrap;html=1;fontSize=19;strokeWidth=2;fillColor=#1ba1e2;strokeColor=#FF3333;fontColor=#ffffff;" vertex="1" parent="1">
          <mxGeometry x="428" y="190" width="70" height="44" as="geometry" />
        </mxCell>
        <mxCell id="IuszdM8qc4TvNAA_Pq3Z-6" value="DDOS Attack" style="text;html=1;align=center;verticalAlign=middle;resizable=0;points=[];autosize=1;strokeColor=none;fillColor=none;fontSize=18;" vertex="1" parent="1">
          <mxGeometry x="148" y="260" width="120" height="30" as="geometry" />
        </mxCell>
        <mxCell id="IuszdM8qc4TvNAA_Pq3Z-7" value="" style="shape=image;html=1;verticalAlign=top;verticalLabelPosition=bottom;labelBackgroundColor=#ffffff;imageAspect=0;aspect=fixed;image=https://cdn4.iconfinder.com/data/icons/internet-networking-and-communication-glyph-24/24/Communication_tower_signal_tower_wifi_antenna_wifi_tower_wireless_antenna-128.png;fontSize=18;strokeWidth=2;fillColor=none;rotation=90;" vertex="1" parent="1">
          <mxGeometry x="178" y="216.5" width="25" height="25" as="geometry" />
        </mxCell>
        <mxCell id="IuszdM8qc4TvNAA_Pq3Z-8" value="" style="shape=image;html=1;verticalAlign=top;verticalLabelPosition=bottom;labelBackgroundColor=#ffffff;imageAspect=0;aspect=fixed;image=https://cdn4.iconfinder.com/data/icons/vecico-connectivity/288/radio-128.png;fontSize=18;strokeWidth=2;fillColor=none;" vertex="1" parent="1">
          <mxGeometry x="235" y="130" width="30" height="30" as="geometry" />
        </mxCell>
        <mxCell id="IuszdM8qc4TvNAA_Pq3Z-9" value="" style="shape=image;html=1;verticalAlign=top;verticalLabelPosition=bottom;labelBackgroundColor=#ffffff;imageAspect=0;aspect=fixed;image=https://cdn4.iconfinder.com/data/icons/vecico-connectivity/288/radio-128.png;fontSize=18;strokeWidth=2;fillColor=none;" vertex="1" parent="1">
          <mxGeometry x="265" y="120" width="30" height="30" as="geometry" />
        </mxCell>
        <mxCell id="IuszdM8qc4TvNAA_Pq3Z-11" value="RIU" style="text;html=1;align=center;verticalAlign=middle;resizable=0;points=[];autosize=1;strokeColor=none;fillColor=none;fontSize=18;" vertex="1" parent="1">
          <mxGeometry x="289" y="130" width="50" height="30" as="geometry" />
        </mxCell>
        <mxCell id="LryRuzHpH3qBDoidCZKr-1" value="" style="sketch=0;points=[[0.015,0.015,0],[0.985,0.015,0],[0.985,0.985,0],[0.015,0.985,0],[0.25,0,0],[0.5,0,0],[0.75,0,0],[1,0.25,0],[1,0.5,0],[1,0.75,0],[0.75,1,0],[0.5,1,0],[0.25,1,0],[0,0.75,0],[0,0.5,0],[0,0.25,0]];verticalLabelPosition=bottom;html=1;verticalAlign=top;aspect=fixed;align=center;pointerEvents=1;shape=mxgraph.cisco19.rect;prIcon=secure_catalyst_switch_subdued;fillColor=#FAFAFA;strokeColor=#6696AB;" vertex="1" parent="1">
          <mxGeometry x="588" y="150" width="111.41" height="113" as="geometry" />
        </mxCell>
        <mxCell id="axRxidtdj6RqYFoFORX3-1" value="" style="fontColor=#0066CC;verticalAlign=top;verticalLabelPosition=bottom;labelPosition=center;align=center;html=1;outlineConnect=0;fillColor=#CCCCCC;strokeColor=#6881B3;gradientColor=none;gradientDirection=north;strokeWidth=2;shape=mxgraph.networks.server;fontSize=22;" vertex="1" parent="1">
          <mxGeometry x="428" y="54" width="70" height="80" as="geometry" />
        </mxCell>
        <mxCell id="axRxidtdj6RqYFoFORX3-2" value="" style="sketch=0;aspect=fixed;html=1;points=[];align=center;image;fontSize=12;image=img/lib/mscae/Virtual_WANs.svg;" vertex="1" parent="1">
          <mxGeometry x="802" y="171.5" width="70" height="70" as="geometry" />
        </mxCell>
        <mxCell id="axRxidtdj6RqYFoFORX3-7" value="Packet Core" style="text;html=1;align=center;verticalAlign=middle;resizable=0;points=[];autosize=1;strokeColor=none;fillColor=none;fontSize=18;" vertex="1" parent="1">
          <mxGeometry x="589.41" y="263" width="110" height="30" as="geometry" />
        </mxCell>
        <mxCell id="axRxidtdj6RqYFoFORX3-8" value="Internet" style="text;html=1;align=center;verticalAlign=middle;resizable=0;points=[];autosize=1;strokeColor=none;fillColor=none;fontSize=18;" vertex="1" parent="1">
          <mxGeometry x="790" y="255" width="80" height="30" as="geometry" />
        </mxCell>
        <mxCell id="axRxidtdj6RqYFoFORX3-9" value="MEC" style="text;html=1;align=center;verticalAlign=middle;resizable=0;points=[];autosize=1;strokeColor=none;fillColor=none;fontSize=18;" vertex="1" parent="1">
          <mxGeometry x="518" y="80" width="60" height="30" as="geometry" />
        </mxCell>
        <mxCell id="axRxidtdj6RqYFoFORX3-10" value="" style="endArrow=classic;html=1;fontSize=18;strokeColor=#FF3333;strokeWidth=2;curved=1;exitX=0.813;exitY=0.01;exitDx=0;exitDy=0;exitPerimeter=0;" edge="1" parent="1">
          <mxGeometry width="50" height="50" relative="1" as="geometry">
            <mxPoint x="446.25" y="161" as="sourcePoint" />
            <mxPoint x="445" y="134" as="targetPoint" />
          </mxGeometry>
        </mxCell>
        <mxCell id="axRxidtdj6RqYFoFORX3-11" value="" style="endArrow=classic;html=1;fontSize=18;strokeColor=#FF3333;strokeWidth=2;curved=1;exitX=0.813;exitY=0.01;exitDx=0;exitDy=0;exitPerimeter=0;" edge="1" parent="1">
          <mxGeometry width="50" height="50" relative="1" as="geometry">
            <mxPoint x="459.25" y="162" as="sourcePoint" />
            <mxPoint x="458" y="135" as="targetPoint" />
          </mxGeometry>
        </mxCell>
        <mxCell id="axRxidtdj6RqYFoFORX3-12" value="" style="endArrow=classic;html=1;fontSize=18;strokeColor=#FF3333;strokeWidth=2;curved=1;exitX=0.813;exitY=0.01;exitDx=0;exitDy=0;exitPerimeter=0;" edge="1" parent="1">
          <mxGeometry width="50" height="50" relative="1" as="geometry">
            <mxPoint x="477.25" y="163" as="sourcePoint" />
            <mxPoint x="476" y="136" as="targetPoint" />
          </mxGeometry>
        </mxCell>
      </root>
    </mxGraphModel>
  </diagram>
  <diagram id="3xUbZmNQPsbWU7GrtP6z" name="9-DDos-2">
    <mxGraphModel dx="1296" dy="669" grid="0" gridSize="10" guides="1" tooltips="1" connect="1" arrows="1" fold="1" page="1" pageScale="1" pageWidth="850" pageHeight="1100" math="0" shadow="0">
      <root>
        <mxCell id="0" />
        <mxCell id="1" parent="0" />
        <mxCell id="tqUW8BY9zQVNPDnOwaKG-22" value="" style="rounded=0;whiteSpace=wrap;html=1;fontSize=18;strokeColor=#000000;strokeWidth=2;fillColor=none;" vertex="1" parent="1">
          <mxGeometry x="260" y="94" width="170" height="100" as="geometry" />
        </mxCell>
        <mxCell id="tqUW8BY9zQVNPDnOwaKG-1" value="" style="shape=image;html=1;verticalAlign=top;verticalLabelPosition=bottom;labelBackgroundColor=#ffffff;imageAspect=0;aspect=fixed;image=https://cdn0.iconfinder.com/data/icons/game-asset-1/24/controller-128.png;fontSize=18;strokeColor=#FF3333;strokeWidth=2;fillColor=none;" vertex="1" parent="1">
          <mxGeometry x="100" y="110" width="48" height="48" as="geometry" />
        </mxCell>
        <mxCell id="tqUW8BY9zQVNPDnOwaKG-3" value="" style="shape=mxgraph.signs.transportation.car_4;html=1;pointerEvents=1;fillColor=#000000;strokeColor=none;verticalLabelPosition=bottom;verticalAlign=top;align=center;fontSize=18;" vertex="1" parent="1">
          <mxGeometry x="70" y="158" width="40" height="36" as="geometry" />
        </mxCell>
        <mxCell id="tqUW8BY9zQVNPDnOwaKG-4" value="" style="shape=image;html=1;verticalAlign=top;verticalLabelPosition=bottom;labelBackgroundColor=#ffffff;imageAspect=0;aspect=fixed;image=https://cdn0.iconfinder.com/data/icons/google-material-design-3-0/48/ic_home_48px-128.png;fontSize=18;strokeColor=#FF3333;strokeWidth=2;fillColor=none;" vertex="1" parent="1">
          <mxGeometry x="42" y="110" width="48" height="48" as="geometry" />
        </mxCell>
        <mxCell id="tqUW8BY9zQVNPDnOwaKG-5" value="" style="shape=image;html=1;verticalAlign=top;verticalLabelPosition=bottom;labelBackgroundColor=#ffffff;imageAspect=0;aspect=fixed;image=https://cdn4.iconfinder.com/data/icons/essential-app-1/16/mobile-phone-smart-screen-128.png;fontSize=18;strokeColor=#FF3333;strokeWidth=2;fillColor=none;" vertex="1" parent="1">
          <mxGeometry x="148" y="120" width="48" height="48" as="geometry" />
        </mxCell>
        <mxCell id="tqUW8BY9zQVNPDnOwaKG-6" value="" style="shape=image;html=1;verticalAlign=top;verticalLabelPosition=bottom;labelBackgroundColor=#ffffff;imageAspect=0;aspect=fixed;image=https://cdn1.iconfinder.com/data/icons/computer-hardware-hand-drawn-vol-2/52/signal__device__technology__radar__satellite__antenna__tower-128.png;fontSize=18;strokeColor=#FF3333;strokeWidth=2;fillColor=none;" vertex="1" parent="1">
          <mxGeometry x="70" y="82" width="38" height="38" as="geometry" />
        </mxCell>
        <mxCell id="tqUW8BY9zQVNPDnOwaKG-7" value="" style="shape=image;html=1;verticalAlign=top;verticalLabelPosition=bottom;labelBackgroundColor=#ffffff;imageAspect=0;aspect=fixed;image=https://cdn0.iconfinder.com/data/icons/game-asset-1/24/controller-128.png;fontSize=18;strokeColor=#FF3333;strokeWidth=2;fillColor=none;" vertex="1" parent="1">
          <mxGeometry x="100" y="248" width="48" height="48" as="geometry" />
        </mxCell>
        <mxCell id="tqUW8BY9zQVNPDnOwaKG-8" value="" style="shape=mxgraph.signs.transportation.car_4;html=1;pointerEvents=1;fillColor=#000000;strokeColor=none;verticalLabelPosition=bottom;verticalAlign=top;align=center;fontSize=18;" vertex="1" parent="1">
          <mxGeometry x="70" y="296" width="40" height="36" as="geometry" />
        </mxCell>
        <mxCell id="tqUW8BY9zQVNPDnOwaKG-9" value="" style="shape=image;html=1;verticalAlign=top;verticalLabelPosition=bottom;labelBackgroundColor=#ffffff;imageAspect=0;aspect=fixed;image=https://cdn0.iconfinder.com/data/icons/google-material-design-3-0/48/ic_home_48px-128.png;fontSize=18;strokeColor=#FF3333;strokeWidth=2;fillColor=none;" vertex="1" parent="1">
          <mxGeometry x="42" y="248" width="48" height="48" as="geometry" />
        </mxCell>
        <mxCell id="tqUW8BY9zQVNPDnOwaKG-10" value="" style="shape=image;html=1;verticalAlign=top;verticalLabelPosition=bottom;labelBackgroundColor=#ffffff;imageAspect=0;aspect=fixed;image=https://cdn4.iconfinder.com/data/icons/essential-app-1/16/mobile-phone-smart-screen-128.png;fontSize=18;strokeColor=#FF3333;strokeWidth=2;fillColor=none;" vertex="1" parent="1">
          <mxGeometry x="148" y="258" width="48" height="48" as="geometry" />
        </mxCell>
        <mxCell id="tqUW8BY9zQVNPDnOwaKG-11" value="" style="shape=image;html=1;verticalAlign=top;verticalLabelPosition=bottom;labelBackgroundColor=#ffffff;imageAspect=0;aspect=fixed;image=https://cdn1.iconfinder.com/data/icons/computer-hardware-hand-drawn-vol-2/52/signal__device__technology__radar__satellite__antenna__tower-128.png;fontSize=18;strokeColor=#FF3333;strokeWidth=2;fillColor=none;" vertex="1" parent="1">
          <mxGeometry x="70" y="220" width="38" height="38" as="geometry" />
        </mxCell>
        <mxCell id="tqUW8BY9zQVNPDnOwaKG-12" value="" style="shape=image;html=1;verticalAlign=top;verticalLabelPosition=bottom;labelBackgroundColor=#ffffff;imageAspect=0;aspect=fixed;image=https://cdn0.iconfinder.com/data/icons/game-asset-1/24/controller-128.png;fontSize=18;strokeColor=#FF3333;strokeWidth=2;fillColor=none;" vertex="1" parent="1">
          <mxGeometry x="105" y="398" width="48" height="48" as="geometry" />
        </mxCell>
        <mxCell id="tqUW8BY9zQVNPDnOwaKG-13" value="" style="shape=mxgraph.signs.transportation.car_4;html=1;pointerEvents=1;fillColor=#000000;strokeColor=none;verticalLabelPosition=bottom;verticalAlign=top;align=center;fontSize=18;" vertex="1" parent="1">
          <mxGeometry x="75" y="446" width="40" height="36" as="geometry" />
        </mxCell>
        <mxCell id="tqUW8BY9zQVNPDnOwaKG-14" value="" style="shape=image;html=1;verticalAlign=top;verticalLabelPosition=bottom;labelBackgroundColor=#ffffff;imageAspect=0;aspect=fixed;image=https://cdn0.iconfinder.com/data/icons/google-material-design-3-0/48/ic_home_48px-128.png;fontSize=18;strokeColor=#FF3333;strokeWidth=2;fillColor=none;" vertex="1" parent="1">
          <mxGeometry x="47" y="398" width="48" height="48" as="geometry" />
        </mxCell>
        <mxCell id="tqUW8BY9zQVNPDnOwaKG-15" value="" style="shape=image;html=1;verticalAlign=top;verticalLabelPosition=bottom;labelBackgroundColor=#ffffff;imageAspect=0;aspect=fixed;image=https://cdn4.iconfinder.com/data/icons/essential-app-1/16/mobile-phone-smart-screen-128.png;fontSize=18;strokeColor=#FF3333;strokeWidth=2;fillColor=none;" vertex="1" parent="1">
          <mxGeometry x="153" y="408" width="48" height="48" as="geometry" />
        </mxCell>
        <mxCell id="tqUW8BY9zQVNPDnOwaKG-16" value="" style="shape=image;html=1;verticalAlign=top;verticalLabelPosition=bottom;labelBackgroundColor=#ffffff;imageAspect=0;aspect=fixed;image=https://cdn1.iconfinder.com/data/icons/computer-hardware-hand-drawn-vol-2/52/signal__device__technology__radar__satellite__antenna__tower-128.png;fontSize=18;strokeColor=#FF3333;strokeWidth=2;fillColor=none;" vertex="1" parent="1">
          <mxGeometry x="75" y="370" width="38" height="38" as="geometry" />
        </mxCell>
        <mxCell id="tqUW8BY9zQVNPDnOwaKG-17" value="" style="shape=image;html=1;verticalAlign=top;verticalLabelPosition=bottom;labelBackgroundColor=#ffffff;imageAspect=0;aspect=fixed;image=https://cdn4.iconfinder.com/data/icons/vecico-connectivity/288/radio-128.png;fontSize=18;strokeColor=#FF3333;strokeWidth=2;fillColor=none;" vertex="1" parent="1">
          <mxGeometry x="267" y="106" width="68" height="68" as="geometry" />
        </mxCell>
        <mxCell id="tqUW8BY9zQVNPDnOwaKG-19" value="" style="rounded=0;whiteSpace=wrap;html=1;fontSize=18;strokeColor=none;strokeWidth=2;fillColor=#1ba1e2;fontColor=#ffffff;" vertex="1" parent="1">
          <mxGeometry x="335" y="134" width="20" height="40" as="geometry" />
        </mxCell>
        <mxCell id="tqUW8BY9zQVNPDnOwaKG-20" value="" style="rounded=0;whiteSpace=wrap;html=1;fontSize=18;strokeColor=none;strokeWidth=2;fillColor=#60a917;fontColor=#ffffff;" vertex="1" parent="1">
          <mxGeometry x="360" y="114" width="20" height="60" as="geometry" />
        </mxCell>
        <mxCell id="tqUW8BY9zQVNPDnOwaKG-21" value="" style="rounded=1;whiteSpace=wrap;html=1;fontSize=18;strokeColor=none;strokeWidth=2;fillColor=#f0a30a;fontColor=#000000;" vertex="1" parent="1">
          <mxGeometry x="387" y="144" width="20" height="29" as="geometry" />
        </mxCell>
        <mxCell id="tqUW8BY9zQVNPDnOwaKG-23" value="" style="rounded=0;whiteSpace=wrap;html=1;fontSize=18;strokeColor=#000000;strokeWidth=2;fillColor=none;" vertex="1" parent="1">
          <mxGeometry x="255" y="240" width="170" height="100" as="geometry" />
        </mxCell>
        <mxCell id="tqUW8BY9zQVNPDnOwaKG-24" value="" style="shape=image;html=1;verticalAlign=top;verticalLabelPosition=bottom;labelBackgroundColor=#ffffff;imageAspect=0;aspect=fixed;image=https://cdn4.iconfinder.com/data/icons/vecico-connectivity/288/radio-128.png;fontSize=18;strokeColor=#FF3333;strokeWidth=2;fillColor=none;" vertex="1" parent="1">
          <mxGeometry x="262" y="252" width="68" height="68" as="geometry" />
        </mxCell>
        <mxCell id="tqUW8BY9zQVNPDnOwaKG-25" value="" style="rounded=0;whiteSpace=wrap;html=1;fontSize=18;strokeColor=none;strokeWidth=2;fillColor=#1ba1e2;fontColor=#ffffff;" vertex="1" parent="1">
          <mxGeometry x="330" y="280" width="20" height="40" as="geometry" />
        </mxCell>
        <mxCell id="tqUW8BY9zQVNPDnOwaKG-26" value="" style="rounded=0;whiteSpace=wrap;html=1;fontSize=18;strokeColor=none;strokeWidth=2;fillColor=#60a917;fontColor=#ffffff;" vertex="1" parent="1">
          <mxGeometry x="355" y="260" width="20" height="60" as="geometry" />
        </mxCell>
        <mxCell id="tqUW8BY9zQVNPDnOwaKG-27" value="" style="rounded=1;whiteSpace=wrap;html=1;fontSize=18;strokeColor=none;strokeWidth=2;fillColor=#f0a30a;fontColor=#000000;" vertex="1" parent="1">
          <mxGeometry x="382" y="290" width="20" height="29" as="geometry" />
        </mxCell>
        <mxCell id="tqUW8BY9zQVNPDnOwaKG-28" value="" style="rounded=0;whiteSpace=wrap;html=1;fontSize=18;strokeColor=#000000;strokeWidth=2;fillColor=none;" vertex="1" parent="1">
          <mxGeometry x="255" y="382" width="170" height="100" as="geometry" />
        </mxCell>
        <mxCell id="tqUW8BY9zQVNPDnOwaKG-29" value="" style="shape=image;html=1;verticalAlign=top;verticalLabelPosition=bottom;labelBackgroundColor=#ffffff;imageAspect=0;aspect=fixed;image=https://cdn4.iconfinder.com/data/icons/vecico-connectivity/288/radio-128.png;fontSize=18;strokeColor=#FF3333;strokeWidth=2;fillColor=none;" vertex="1" parent="1">
          <mxGeometry x="262" y="394" width="68" height="68" as="geometry" />
        </mxCell>
        <mxCell id="tqUW8BY9zQVNPDnOwaKG-30" value="" style="rounded=0;whiteSpace=wrap;html=1;fontSize=18;strokeColor=none;strokeWidth=2;fillColor=#1ba1e2;fontColor=#ffffff;" vertex="1" parent="1">
          <mxGeometry x="330" y="422" width="20" height="40" as="geometry" />
        </mxCell>
        <mxCell id="tqUW8BY9zQVNPDnOwaKG-31" value="" style="rounded=0;whiteSpace=wrap;html=1;fontSize=18;strokeColor=none;strokeWidth=2;fillColor=#60a917;fontColor=#ffffff;" vertex="1" parent="1">
          <mxGeometry x="355" y="402" width="20" height="60" as="geometry" />
        </mxCell>
        <mxCell id="tqUW8BY9zQVNPDnOwaKG-32" value="" style="rounded=1;whiteSpace=wrap;html=1;fontSize=18;strokeColor=none;strokeWidth=2;fillColor=#f0a30a;fontColor=#000000;" vertex="1" parent="1">
          <mxGeometry x="382" y="432" width="20" height="29" as="geometry" />
        </mxCell>
        <mxCell id="tqUW8BY9zQVNPDnOwaKG-33" value="" style="endArrow=none;html=1;fontSize=18;strokeColor=#FF3333;strokeWidth=2;curved=1;" edge="1" parent="1">
          <mxGeometry width="50" height="50" relative="1" as="geometry">
            <mxPoint x="200" y="144" as="sourcePoint" />
            <mxPoint x="260" y="144" as="targetPoint" />
          </mxGeometry>
        </mxCell>
        <mxCell id="tqUW8BY9zQVNPDnOwaKG-34" value="" style="endArrow=none;html=1;fontSize=18;strokeColor=#FF3333;strokeWidth=2;curved=1;" edge="1" parent="1">
          <mxGeometry width="50" height="50" relative="1" as="geometry">
            <mxPoint x="196" y="295" as="sourcePoint" />
            <mxPoint x="256" y="295" as="targetPoint" />
          </mxGeometry>
        </mxCell>
        <mxCell id="tqUW8BY9zQVNPDnOwaKG-35" value="" style="endArrow=none;html=1;fontSize=18;strokeColor=#FF3333;strokeWidth=2;curved=1;" edge="1" parent="1">
          <mxGeometry width="50" height="50" relative="1" as="geometry">
            <mxPoint x="196" y="441.5" as="sourcePoint" />
            <mxPoint x="256" y="441.5" as="targetPoint" />
          </mxGeometry>
        </mxCell>
        <mxCell id="tqUW8BY9zQVNPDnOwaKG-37" value="&lt;div&gt;Low latency Slice&lt;/div&gt;&lt;div&gt;(e.g. Gaming)&lt;br&gt;&lt;/div&gt;" style="rounded=1;whiteSpace=wrap;html=1;fontSize=18;strokeColor=none;strokeWidth=2;fillColor=#1ba1e2;fontColor=#ffffff;" vertex="1" parent="1">
          <mxGeometry x="480" y="104" width="230" height="60" as="geometry" />
        </mxCell>
        <mxCell id="tqUW8BY9zQVNPDnOwaKG-38" value="&lt;div&gt;IoT Slice&lt;/div&gt;&lt;div&gt;&amp;nbsp;(e.g. Industrial IoT)&lt;/div&gt;" style="rounded=1;whiteSpace=wrap;html=1;fontSize=18;strokeColor=none;strokeWidth=2;fillColor=#60a917;fontColor=#ffffff;" vertex="1" parent="1">
          <mxGeometry x="480" y="256" width="230" height="60" as="geometry" />
        </mxCell>
        <mxCell id="tqUW8BY9zQVNPDnOwaKG-39" value="&lt;div&gt;Best Effort Slice&lt;/div&gt;&lt;div&gt;(e.g. consumer)&lt;br&gt;&lt;/div&gt;" style="rounded=1;whiteSpace=wrap;html=1;fontSize=18;strokeColor=none;strokeWidth=2;fillColor=#f0a30a;fontColor=#000000;" vertex="1" parent="1">
          <mxGeometry x="480" y="408" width="230" height="60" as="geometry" />
        </mxCell>
        <mxCell id="tqUW8BY9zQVNPDnOwaKG-40" value="Gaming Packet Core" style="rounded=1;whiteSpace=wrap;html=1;fontSize=18;strokeColor=none;strokeWidth=2;fillColor=#1ba1e2;fontColor=#ffffff;" vertex="1" parent="1">
          <mxGeometry x="740" y="104" width="150" height="60" as="geometry" />
        </mxCell>
        <mxCell id="tqUW8BY9zQVNPDnOwaKG-41" value="&lt;div&gt;IoT Packet &lt;br&gt;&lt;/div&gt;&lt;div&gt;Core&lt;/div&gt;" style="rounded=1;whiteSpace=wrap;html=1;fontSize=18;strokeColor=none;strokeWidth=2;fillColor=#60a917;fontColor=#ffffff;" vertex="1" parent="1">
          <mxGeometry x="740" y="256" width="150" height="60" as="geometry" />
        </mxCell>
        <mxCell id="tqUW8BY9zQVNPDnOwaKG-42" value="&lt;div&gt;Consumer Packet&lt;/div&gt;&lt;div&gt;Core&lt;br&gt;&lt;/div&gt;" style="rounded=1;whiteSpace=wrap;html=1;fontSize=18;strokeColor=none;strokeWidth=2;fillColor=#f0a30a;fontColor=#000000;" vertex="1" parent="1">
          <mxGeometry x="740" y="409" width="150" height="60" as="geometry" />
        </mxCell>
        <mxCell id="tqUW8BY9zQVNPDnOwaKG-43" value="" style="sketch=0;pointerEvents=1;shadow=0;dashed=0;html=1;strokeColor=none;fillColor=#505050;labelPosition=center;verticalLabelPosition=bottom;verticalAlign=top;outlineConnect=0;align=center;shape=mxgraph.office.servers.datacenter;fontSize=18;" vertex="1" parent="1">
          <mxGeometry x="970" y="256" width="130" height="74" as="geometry" />
        </mxCell>
        <mxCell id="tqUW8BY9zQVNPDnOwaKG-44" value="" style="shape=image;html=1;verticalAlign=top;verticalLabelPosition=bottom;labelBackgroundColor=#ffffff;imageAspect=0;aspect=fixed;image=https://cdn3.iconfinder.com/data/icons/discord/64/discord_5-128.png;fontSize=18;strokeColor=#000000;strokeWidth=2;fillColor=default;" vertex="1" parent="1">
          <mxGeometry x="970" y="66" width="128" height="128" as="geometry" />
        </mxCell>
        <mxCell id="s1DHSJTCeTCYZkqLW93v-1" value="" style="sketch=0;aspect=fixed;html=1;points=[];align=center;image;fontSize=12;image=img/lib/mscae/Virtual_WANs.svg;" vertex="1" parent="1">
          <mxGeometry x="987.5" y="381.5" width="93" height="93" as="geometry" />
        </mxCell>
        <mxCell id="s1DHSJTCeTCYZkqLW93v-2" value="Internet" style="text;html=1;align=center;verticalAlign=middle;resizable=0;points=[];autosize=1;strokeColor=none;fillColor=none;fontSize=18;" vertex="1" parent="1">
          <mxGeometry x="1000.5" y="490" width="80" height="30" as="geometry" />
        </mxCell>
        <mxCell id="s1DHSJTCeTCYZkqLW93v-5" value="" style="endArrow=none;html=1;fontSize=18;strokeColor=#60a917;strokeWidth=2;curved=1;entryX=-0.009;entryY=0.421;entryDx=0;entryDy=0;entryPerimeter=0;" edge="1" parent="1" target="tqUW8BY9zQVNPDnOwaKG-38">
          <mxGeometry width="50" height="50" relative="1" as="geometry">
            <mxPoint x="430" y="134" as="sourcePoint" />
            <mxPoint x="480" y="84" as="targetPoint" />
            <Array as="points">
              <mxPoint x="470" y="200" />
            </Array>
          </mxGeometry>
        </mxCell>
        <mxCell id="s1DHSJTCeTCYZkqLW93v-6" value="" style="endArrow=none;html=1;fontSize=18;strokeColor=#1ba1e2;strokeWidth=2;curved=1;entryX=0;entryY=0.6;entryDx=0;entryDy=0;entryPerimeter=0;" edge="1" parent="1" target="tqUW8BY9zQVNPDnOwaKG-37">
          <mxGeometry width="50" height="50" relative="1" as="geometry">
            <mxPoint x="425" y="297" as="sourcePoint" />
            <mxPoint x="475" y="247" as="targetPoint" />
            <Array as="points">
              <mxPoint x="480" y="230" />
            </Array>
          </mxGeometry>
        </mxCell>
        <mxCell id="s1DHSJTCeTCYZkqLW93v-7" value="" style="endArrow=none;html=1;fontSize=18;strokeColor=#1ba1e2;strokeWidth=2;curved=1;exitX=1.013;exitY=0.364;exitDx=0;exitDy=0;exitPerimeter=0;" edge="1" parent="1" source="tqUW8BY9zQVNPDnOwaKG-28">
          <mxGeometry width="50" height="50" relative="1" as="geometry">
            <mxPoint x="430" y="194" as="sourcePoint" />
            <mxPoint x="480" y="144" as="targetPoint" />
            <Array as="points">
              <mxPoint x="430" y="230" />
            </Array>
          </mxGeometry>
        </mxCell>
        <mxCell id="s1DHSJTCeTCYZkqLW93v-8" value="" style="endArrow=none;html=1;fontSize=18;strokeColor=#60a917;strokeWidth=2;curved=1;exitX=1.013;exitY=0.416;exitDx=0;exitDy=0;exitPerimeter=0;" edge="1" parent="1" source="tqUW8BY9zQVNPDnOwaKG-28">
          <mxGeometry width="50" height="50" relative="1" as="geometry">
            <mxPoint x="430" y="332" as="sourcePoint" />
            <mxPoint x="480" y="282" as="targetPoint" />
            <Array as="points">
              <mxPoint x="480" y="360" />
            </Array>
          </mxGeometry>
        </mxCell>
        <mxCell id="s1DHSJTCeTCYZkqLW93v-9" value="" style="endArrow=none;html=1;fontSize=18;strokeColor=#f0a30a;strokeWidth=2;curved=1;exitX=-0.006;exitY=0.317;exitDx=0;exitDy=0;exitPerimeter=0;fillColor=#f0a30a;" edge="1" parent="1">
          <mxGeometry width="50" height="50" relative="1" as="geometry">
            <mxPoint x="476.6200000000001" y="427.0200000000001" as="sourcePoint" />
            <mxPoint x="428" y="296" as="targetPoint" />
            <Array as="points">
              <mxPoint x="438" y="380" />
            </Array>
          </mxGeometry>
        </mxCell>
        <mxCell id="s1DHSJTCeTCYZkqLW93v-10" value="" style="endArrow=none;html=1;fontSize=18;strokeColor=#4D9900;strokeWidth=2;curved=1;exitX=0.996;exitY=0.504;exitDx=0;exitDy=0;exitPerimeter=0;" edge="1" parent="1" source="tqUW8BY9zQVNPDnOwaKG-38" target="tqUW8BY9zQVNPDnOwaKG-41">
          <mxGeometry width="50" height="50" relative="1" as="geometry">
            <mxPoint x="710" y="290" as="sourcePoint" />
            <mxPoint x="760" y="240" as="targetPoint" />
          </mxGeometry>
        </mxCell>
        <mxCell id="s1DHSJTCeTCYZkqLW93v-11" value="" style="endArrow=none;html=1;fontSize=18;strokeColor=#4D9900;strokeWidth=2;curved=1;" edge="1" parent="1">
          <mxGeometry width="50" height="50" relative="1" as="geometry">
            <mxPoint x="887" y="291" as="sourcePoint" />
            <mxPoint x="970" y="291" as="targetPoint" />
          </mxGeometry>
        </mxCell>
        <mxCell id="s1DHSJTCeTCYZkqLW93v-12" value="" style="endArrow=none;html=1;fontSize=18;strokeColor=#007FFF;strokeWidth=2;curved=1;entryX=0;entryY=0.5;entryDx=0;entryDy=0;" edge="1" parent="1" target="tqUW8BY9zQVNPDnOwaKG-40">
          <mxGeometry width="50" height="50" relative="1" as="geometry">
            <mxPoint x="710" y="134" as="sourcePoint" />
            <mxPoint x="760" y="84" as="targetPoint" />
          </mxGeometry>
        </mxCell>
        <mxCell id="s1DHSJTCeTCYZkqLW93v-13" value="" style="endArrow=none;html=1;fontSize=18;strokeColor=#007FFF;strokeWidth=2;curved=1;entryX=0;entryY=0.531;entryDx=0;entryDy=0;entryPerimeter=0;" edge="1" parent="1" target="tqUW8BY9zQVNPDnOwaKG-44">
          <mxGeometry width="50" height="50" relative="1" as="geometry">
            <mxPoint x="890" y="134" as="sourcePoint" />
            <mxPoint x="920" y="134" as="targetPoint" />
          </mxGeometry>
        </mxCell>
        <mxCell id="s1DHSJTCeTCYZkqLW93v-16" value="" style="endArrow=none;html=1;fontSize=18;strokeColor=#FF9933;strokeWidth=2;curved=1;fillColor=#f0a30a;" edge="1" parent="1">
          <mxGeometry width="50" height="50" relative="1" as="geometry">
            <mxPoint x="890" y="438.29" as="sourcePoint" />
            <mxPoint x="1000" y="440" as="targetPoint" />
          </mxGeometry>
        </mxCell>
        <mxCell id="s1DHSJTCeTCYZkqLW93v-18" value="" style="endArrow=none;html=1;fontSize=18;strokeColor=#FF9933;strokeWidth=2;curved=1;fillColor=#f0a30a;" edge="1" parent="1">
          <mxGeometry width="50" height="50" relative="1" as="geometry">
            <mxPoint x="700" y="441.14" as="sourcePoint" />
            <mxPoint x="810" y="442.85" as="targetPoint" />
          </mxGeometry>
        </mxCell>
        <mxCell id="s1DHSJTCeTCYZkqLW93v-19" value="Main Datacenter" style="text;html=1;align=center;verticalAlign=middle;resizable=0;points=[];autosize=1;strokeColor=none;fillColor=none;fontSize=18;" vertex="1" parent="1">
          <mxGeometry x="740" y="500" width="150" height="30" as="geometry" />
        </mxCell>
        <mxCell id="s1DHSJTCeTCYZkqLW93v-20" value="Packet Core Slice" style="text;html=1;align=center;verticalAlign=middle;resizable=0;points=[];autosize=1;strokeColor=none;fillColor=none;fontSize=18;" vertex="1" parent="1">
          <mxGeometry x="740" y="550" width="160" height="30" as="geometry" />
        </mxCell>
        <mxCell id="s1DHSJTCeTCYZkqLW93v-21" value="Transport" style="text;html=1;align=center;verticalAlign=middle;resizable=0;points=[];autosize=1;strokeColor=none;fillColor=none;fontSize=18;" vertex="1" parent="1">
          <mxGeometry x="550" y="500" width="90" height="30" as="geometry" />
        </mxCell>
        <mxCell id="s1DHSJTCeTCYZkqLW93v-22" value="&lt;div&gt;Unified underlay with &lt;br&gt;&lt;/div&gt;&lt;div&gt;segment routing&lt;/div&gt;" style="text;html=1;align=center;verticalAlign=middle;resizable=0;points=[];autosize=1;strokeColor=none;fillColor=none;fontSize=18;" vertex="1" parent="1">
          <mxGeometry x="505" y="550" width="180" height="50" as="geometry" />
        </mxCell>
        <mxCell id="s1DHSJTCeTCYZkqLW93v-23" value="xRAN with edge DC" style="text;html=1;align=center;verticalAlign=middle;resizable=0;points=[];autosize=1;strokeColor=none;fillColor=none;fontSize=18;" vertex="1" parent="1">
          <mxGeometry x="245" y="500" width="180" height="30" as="geometry" />
        </mxCell>
        <mxCell id="s1DHSJTCeTCYZkqLW93v-24" value="Virtualized radio" style="text;html=1;align=center;verticalAlign=middle;resizable=0;points=[];autosize=1;strokeColor=none;fillColor=none;fontSize=18;" vertex="1" parent="1">
          <mxGeometry x="260" y="560" width="140" height="30" as="geometry" />
        </mxCell>
        <mxCell id="s1DHSJTCeTCYZkqLW93v-25" value="" style="endArrow=classic;startArrow=classic;html=1;fontSize=18;strokeColor=#FF9933;strokeWidth=2;curved=1;" edge="1" parent="1">
          <mxGeometry width="50" height="50" relative="1" as="geometry">
            <mxPoint x="240.5" y="540" as="sourcePoint" />
            <mxPoint x="419.5" y="540" as="targetPoint" />
          </mxGeometry>
        </mxCell>
        <mxCell id="s1DHSJTCeTCYZkqLW93v-26" value="" style="endArrow=classic;startArrow=classic;html=1;fontSize=18;strokeColor=#FF9933;strokeWidth=2;curved=1;" edge="1" parent="1">
          <mxGeometry width="50" height="50" relative="1" as="geometry">
            <mxPoint x="505.5" y="540" as="sourcePoint" />
            <mxPoint x="684.5" y="540" as="targetPoint" />
          </mxGeometry>
        </mxCell>
        <mxCell id="s1DHSJTCeTCYZkqLW93v-27" value="" style="endArrow=classic;startArrow=classic;html=1;fontSize=18;strokeColor=#FF9933;strokeWidth=2;curved=1;" edge="1" parent="1">
          <mxGeometry width="50" height="50" relative="1" as="geometry">
            <mxPoint x="730.5" y="540" as="sourcePoint" />
            <mxPoint x="909.5" y="540" as="targetPoint" />
          </mxGeometry>
        </mxCell>
      </root>
    </mxGraphModel>
  </diagram>
  <diagram id="MZ4PsdAssObSo4WgfpID" name="10-DDOS">
    <mxGraphModel dx="2146" dy="669" grid="0" gridSize="10" guides="1" tooltips="1" connect="1" arrows="1" fold="1" page="1" pageScale="1" pageWidth="850" pageHeight="1100" math="0" shadow="0">
      <root>
        <mxCell id="0" />
        <mxCell id="1" parent="0" />
        <mxCell id="YXklv65qe908o8K3O07x-16" value="" style="rounded=1;whiteSpace=wrap;html=1;fontSize=33;strokeColor=#66CC00;strokeWidth=4;fillColor=none;dashed=1;" vertex="1" parent="1">
          <mxGeometry x="240" y="160" width="626" height="350" as="geometry" />
        </mxCell>
        <mxCell id="YXklv65qe908o8K3O07x-15" value="" style="rounded=1;whiteSpace=wrap;html=1;fontSize=33;strokeColor=#FFB366;strokeWidth=4;fillColor=none;dashed=1;" vertex="1" parent="1">
          <mxGeometry x="1" y="171" width="606" height="330" as="geometry" />
        </mxCell>
        <mxCell id="YXklv65qe908o8K3O07x-1" value="" style="rounded=1;whiteSpace=wrap;html=1;fontSize=18;strokeColor=none;strokeWidth=2;fillColor=#FFB366;" vertex="1" parent="1">
          <mxGeometry x="10" y="180" width="170" height="310" as="geometry" />
        </mxCell>
        <mxCell id="YXklv65qe908o8K3O07x-2" value="" style="rounded=1;whiteSpace=wrap;html=1;fontSize=18;strokeColor=none;strokeWidth=2;fillColor=#66CC00;" vertex="1" parent="1">
          <mxGeometry x="646" y="180" width="210" height="310" as="geometry" />
        </mxCell>
        <mxCell id="YXklv65qe908o8K3O07x-3" value="UPF" style="rounded=0;whiteSpace=wrap;html=1;fontSize=33;strokeColor=#000000;strokeWidth=2;fillColor=none;" vertex="1" parent="1">
          <mxGeometry x="39" y="220" width="100" height="50" as="geometry" />
        </mxCell>
        <mxCell id="YXklv65qe908o8K3O07x-4" value="SMF" style="rounded=0;whiteSpace=wrap;html=1;fontSize=33;strokeColor=#000000;strokeWidth=2;fillColor=none;" vertex="1" parent="1">
          <mxGeometry x="39" y="290" width="100" height="50" as="geometry" />
        </mxCell>
        <mxCell id="YXklv65qe908o8K3O07x-5" value="AMF" style="rounded=0;whiteSpace=wrap;html=1;fontSize=33;strokeColor=#000000;strokeWidth=2;fillColor=none;" vertex="1" parent="1">
          <mxGeometry x="39" y="360" width="100" height="50" as="geometry" />
        </mxCell>
        <mxCell id="YXklv65qe908o8K3O07x-6" value="Slice IoT" style="text;html=1;align=center;verticalAlign=middle;resizable=0;points=[];autosize=1;strokeColor=none;fillColor=none;fontSize=33;" vertex="1" parent="1">
          <mxGeometry x="19" y="420" width="140" height="50" as="geometry" />
        </mxCell>
        <mxCell id="YXklv65qe908o8K3O07x-7" value="UPF" style="rounded=0;whiteSpace=wrap;html=1;fontSize=33;strokeColor=#000000;strokeWidth=2;fillColor=none;" vertex="1" parent="1">
          <mxGeometry x="700" y="220" width="100" height="50" as="geometry" />
        </mxCell>
        <mxCell id="YXklv65qe908o8K3O07x-8" value="SMF" style="rounded=0;whiteSpace=wrap;html=1;fontSize=33;strokeColor=#000000;strokeWidth=2;fillColor=none;" vertex="1" parent="1">
          <mxGeometry x="700" y="290" width="100" height="50" as="geometry" />
        </mxCell>
        <mxCell id="YXklv65qe908o8K3O07x-9" value="AMF" style="rounded=0;whiteSpace=wrap;html=1;fontSize=33;strokeColor=#000000;strokeWidth=2;fillColor=none;" vertex="1" parent="1">
          <mxGeometry x="700" y="360" width="100" height="50" as="geometry" />
        </mxCell>
        <mxCell id="YXklv65qe908o8K3O07x-10" value="Slice Gaming" style="text;html=1;align=center;verticalAlign=middle;resizable=0;points=[];autosize=1;strokeColor=none;fillColor=none;fontSize=33;" vertex="1" parent="1">
          <mxGeometry x="645" y="420" width="210" height="50" as="geometry" />
        </mxCell>
        <mxCell id="YXklv65qe908o8K3O07x-11" value="NSSF" style="rounded=0;whiteSpace=wrap;html=1;fontSize=33;strokeColor=#000000;strokeWidth=2;fillColor=none;" vertex="1" parent="1">
          <mxGeometry x="250" y="240" width="100" height="50" as="geometry" />
        </mxCell>
        <mxCell id="YXklv65qe908o8K3O07x-12" value="NRF" style="rounded=0;whiteSpace=wrap;html=1;fontSize=33;strokeColor=#000000;strokeWidth=2;fillColor=none;" vertex="1" parent="1">
          <mxGeometry x="375" y="240" width="100" height="50" as="geometry" />
        </mxCell>
        <mxCell id="YXklv65qe908o8K3O07x-13" value="NEF" style="rounded=0;whiteSpace=wrap;html=1;fontSize=33;strokeColor=#000000;strokeWidth=2;fillColor=none;" vertex="1" parent="1">
          <mxGeometry x="500" y="240" width="100" height="50" as="geometry" />
        </mxCell>
        <mxCell id="YXklv65qe908o8K3O07x-14" value="UDM/AUSF" style="rounded=0;whiteSpace=wrap;html=1;fontSize=33;strokeColor=#000000;strokeWidth=2;fillColor=none;" vertex="1" parent="1">
          <mxGeometry x="350" y="330" width="190" height="60" as="geometry" />
        </mxCell>
        <mxCell id="YXklv65qe908o8K3O07x-17" value="DC Virtualization (OpenStack/K8S)" style="rounded=0;whiteSpace=wrap;html=1;dashed=1;fontSize=33;strokeColor=#000000;strokeWidth=4;fillColor=none;" vertex="1" parent="1">
          <mxGeometry x="40" y="550" width="800" height="60" as="geometry" />
        </mxCell>
      </root>
    </mxGraphModel>
  </diagram>
  <diagram id="CkrvXPRRei2kTSL6qCSZ" name="11-throttling">
    <mxGraphModel dx="1102" dy="569" grid="0" gridSize="10" guides="1" tooltips="1" connect="1" arrows="1" fold="1" page="1" pageScale="1" pageWidth="850" pageHeight="1100" math="0" shadow="0">
      <root>
        <mxCell id="0" />
        <mxCell id="1" parent="0" />
        <mxCell id="L040mRnuoViHbXfzrzf6-1" value="DU" style="rounded=1;whiteSpace=wrap;html=1;fontSize=19;strokeWidth=2;fillColor=#1ba1e2;strokeColor=#006EAF;fontColor=#ffffff;" vertex="1" parent="1">
          <mxGeometry x="208" y="246" width="120" height="60" as="geometry" />
        </mxCell>
        <mxCell id="L040mRnuoViHbXfzrzf6-2" value="CU" style="rounded=1;whiteSpace=wrap;html=1;fontSize=19;strokeWidth=2;fillColor=#1ba1e2;strokeColor=#006EAF;fontColor=#ffffff;" vertex="1" parent="1">
          <mxGeometry x="450" y="262" width="120" height="60" as="geometry" />
        </mxCell>
        <mxCell id="L040mRnuoViHbXfzrzf6-3" value="DU" style="rounded=1;whiteSpace=wrap;html=1;fontSize=19;strokeWidth=2;fillColor=#1ba1e2;strokeColor=#006EAF;fontColor=#ffffff;" vertex="1" parent="1">
          <mxGeometry x="220" y="254" width="120" height="60" as="geometry" />
        </mxCell>
        <mxCell id="L040mRnuoViHbXfzrzf6-4" value="DU" style="rounded=1;whiteSpace=wrap;html=1;fontSize=19;strokeWidth=2;fillColor=#1ba1e2;strokeColor=#006EAF;fontColor=#ffffff;" vertex="1" parent="1">
          <mxGeometry x="230" y="264" width="120" height="60" as="geometry" />
        </mxCell>
        <mxCell id="L040mRnuoViHbXfzrzf6-5" value="" style="shape=image;html=1;verticalAlign=top;verticalLabelPosition=bottom;labelBackgroundColor=#ffffff;imageAspect=0;aspect=fixed;image=https://cdn4.iconfinder.com/data/icons/vecico-connectivity/288/radio-128.png" vertex="1" parent="1">
          <mxGeometry x="30" y="184" width="38" height="38" as="geometry" />
        </mxCell>
        <mxCell id="L040mRnuoViHbXfzrzf6-6" value="" style="shape=image;html=1;verticalAlign=top;verticalLabelPosition=bottom;labelBackgroundColor=#ffffff;imageAspect=0;aspect=fixed;image=https://cdn4.iconfinder.com/data/icons/vecico-connectivity/288/radio-128.png" vertex="1" parent="1">
          <mxGeometry x="30" y="294" width="38" height="38" as="geometry" />
        </mxCell>
        <mxCell id="L040mRnuoViHbXfzrzf6-7" value="" style="shape=image;html=1;verticalAlign=top;verticalLabelPosition=bottom;labelBackgroundColor=#ffffff;imageAspect=0;aspect=fixed;image=https://cdn4.iconfinder.com/data/icons/vecico-connectivity/288/radio-128.png" vertex="1" parent="1">
          <mxGeometry x="140" y="384" width="38" height="38" as="geometry" />
        </mxCell>
        <mxCell id="L040mRnuoViHbXfzrzf6-8" value="" style="endArrow=none;html=1;dashed=1;fontSize=19;strokeWidth=2;entryX=0.75;entryY=1;entryDx=0;entryDy=0;exitX=0;exitY=0.25;exitDx=0;exitDy=0;curved=1;" edge="1" parent="1" source="L040mRnuoViHbXfzrzf6-1" target="L040mRnuoViHbXfzrzf6-5">
          <mxGeometry width="50" height="50" relative="1" as="geometry">
            <mxPoint x="230" y="414" as="sourcePoint" />
            <mxPoint x="280" y="364" as="targetPoint" />
            <Array as="points">
              <mxPoint x="110" y="274" />
            </Array>
          </mxGeometry>
        </mxCell>
        <mxCell id="L040mRnuoViHbXfzrzf6-9" value="" style="endArrow=none;dashed=1;html=1;dashPattern=1 3;strokeWidth=2;fontSize=19;entryX=0;entryY=1;entryDx=0;entryDy=0;curved=1;" edge="1" parent="1" target="L040mRnuoViHbXfzrzf6-1">
          <mxGeometry width="50" height="50" relative="1" as="geometry">
            <mxPoint x="60" y="332" as="sourcePoint" />
            <mxPoint x="110" y="282" as="targetPoint" />
            <Array as="points">
              <mxPoint x="130" y="294" />
            </Array>
          </mxGeometry>
        </mxCell>
        <mxCell id="L040mRnuoViHbXfzrzf6-10" value="" style="endArrow=none;dashed=1;html=1;dashPattern=1 3;strokeWidth=2;fontSize=19;entryX=0.092;entryY=1.017;entryDx=0;entryDy=0;entryPerimeter=0;curved=1;" edge="1" parent="1" target="L040mRnuoViHbXfzrzf6-4">
          <mxGeometry width="50" height="50" relative="1" as="geometry">
            <mxPoint x="180" y="414" as="sourcePoint" />
            <mxPoint x="230" y="364" as="targetPoint" />
            <Array as="points">
              <mxPoint x="250" y="394" />
            </Array>
          </mxGeometry>
        </mxCell>
        <mxCell id="L040mRnuoViHbXfzrzf6-11" value="DU" style="rounded=1;whiteSpace=wrap;html=1;fontSize=19;strokeWidth=2;fillColor=#1ba1e2;strokeColor=#006EAF;fontColor=#ffffff;" vertex="1" parent="1">
          <mxGeometry x="240" y="274" width="120" height="60" as="geometry" />
        </mxCell>
        <mxCell id="L040mRnuoViHbXfzrzf6-12" value="CU" style="rounded=1;whiteSpace=wrap;html=1;fontSize=19;strokeWidth=2;fillColor=#1ba1e2;strokeColor=#006EAF;fontColor=#ffffff;" vertex="1" parent="1">
          <mxGeometry x="460" y="272" width="120" height="60" as="geometry" />
        </mxCell>
        <mxCell id="L040mRnuoViHbXfzrzf6-14" value="" style="sketch=0;points=[[0.015,0.015,0],[0.985,0.015,0],[0.985,0.985,0],[0.015,0.985,0],[0.25,0,0],[0.5,0,0],[0.75,0,0],[1,0.25,0],[1,0.5,0],[1,0.75,0],[0.75,1,0],[0.5,1,0],[0.25,1,0],[0,0.75,0],[0,0.5,0],[0,0.25,0]];verticalLabelPosition=bottom;html=1;verticalAlign=top;aspect=fixed;align=center;pointerEvents=1;shape=mxgraph.cisco19.rect;prIcon=secure_catalyst_switch_subdued;fillColor=#FAFAFA;strokeColor=#6696AB;" vertex="1" parent="1">
          <mxGeometry x="685.78" y="246" width="108.45" height="110" as="geometry" />
        </mxCell>
        <mxCell id="L040mRnuoViHbXfzrzf6-22" value="Packet Core" style="text;html=1;align=center;verticalAlign=middle;resizable=0;points=[];autosize=1;strokeColor=none;fillColor=none;fontSize=33;" vertex="1" parent="1">
          <mxGeometry x="640" y="356" width="200" height="50" as="geometry" />
        </mxCell>
        <mxCell id="L040mRnuoViHbXfzrzf6-24" value="Adjustable threshold" style="text;html=1;align=center;verticalAlign=middle;resizable=0;points=[];autosize=1;strokeColor=none;fillColor=none;fontSize=33;" vertex="1" parent="1">
          <mxGeometry x="379" y="440" width="310" height="50" as="geometry" />
        </mxCell>
        <mxCell id="L040mRnuoViHbXfzrzf6-26" value="Analytics algorithms" style="text;html=1;align=center;verticalAlign=middle;resizable=0;points=[];autosize=1;strokeColor=none;fillColor=none;fontSize=33;" vertex="1" parent="1">
          <mxGeometry x="379" y="530" width="310" height="50" as="geometry" />
        </mxCell>
        <mxCell id="L040mRnuoViHbXfzrzf6-27" value="" style="shape=image;html=1;verticalAlign=top;verticalLabelPosition=bottom;labelBackgroundColor=#ffffff;imageAspect=0;aspect=fixed;image=https://cdn3.iconfinder.com/data/icons/flat-actions-icons-9/512/Tick_Mark-128.png;dashed=1;fontSize=33;strokeColor=#000000;strokeWidth=4;fillColor=none;" vertex="1" parent="1">
          <mxGeometry x="323" y="620" width="56" height="56" as="geometry" />
        </mxCell>
        <mxCell id="L040mRnuoViHbXfzrzf6-28" value="Volumetric anomaly detection" style="text;html=1;align=center;verticalAlign=middle;resizable=0;points=[];autosize=1;strokeColor=none;fillColor=none;fontSize=33;" vertex="1" parent="1">
          <mxGeometry x="379" y="620" width="450" height="50" as="geometry" />
        </mxCell>
        <mxCell id="L040mRnuoViHbXfzrzf6-29" value="" style="shape=image;html=1;verticalAlign=top;verticalLabelPosition=bottom;labelBackgroundColor=#ffffff;imageAspect=0;aspect=fixed;image=https://cdn3.iconfinder.com/data/icons/flat-actions-icons-9/512/Tick_Mark-128.png;dashed=1;fontSize=33;strokeColor=#000000;strokeWidth=4;fillColor=none;" vertex="1" parent="1">
          <mxGeometry x="323" y="540" width="56" height="56" as="geometry" />
        </mxCell>
        <mxCell id="L040mRnuoViHbXfzrzf6-30" value="" style="shape=image;html=1;verticalAlign=top;verticalLabelPosition=bottom;labelBackgroundColor=#ffffff;imageAspect=0;aspect=fixed;image=https://cdn3.iconfinder.com/data/icons/flat-actions-icons-9/512/Tick_Mark-128.png;dashed=1;fontSize=33;strokeColor=#000000;strokeWidth=4;fillColor=none;" vertex="1" parent="1">
          <mxGeometry x="320" y="450" width="56" height="56" as="geometry" />
        </mxCell>
      </root>
    </mxGraphModel>
  </diagram>
  <diagram id="GiDzCp2FlaErufGEd8j2" name="12-DDOS">
    <mxGraphModel dx="1102" dy="1669" grid="0" gridSize="10" guides="1" tooltips="1" connect="1" arrows="1" fold="1" page="1" pageScale="1" pageWidth="850" pageHeight="1100" math="0" shadow="0">
      <root>
        <mxCell id="0" />
        <mxCell id="1" parent="0" />
        <mxCell id="gABLxwdRk9xFEGGP4eVl-1" value="" style="shape=image;html=1;verticalAlign=top;verticalLabelPosition=bottom;labelBackgroundColor=#ffffff;imageAspect=0;aspect=fixed;image=https://cdn4.iconfinder.com/data/icons/vecico-connectivity/288/radio-128.png;dashed=1;fontSize=33;strokeColor=#000000;strokeWidth=4;fillColor=none;" vertex="1" parent="1">
          <mxGeometry x="20" y="200" width="68" height="68" as="geometry" />
        </mxCell>
        <mxCell id="gABLxwdRk9xFEGGP4eVl-5" value="" style="shape=image;html=1;verticalAlign=top;verticalLabelPosition=bottom;labelBackgroundColor=#ffffff;imageAspect=0;aspect=fixed;image=https://cdn2.iconfinder.com/data/icons/vivid/48/flame-128.png;dashed=1;fontSize=33;strokeColor=#000000;strokeWidth=4;fillColor=none;" vertex="1" parent="1">
          <mxGeometry x="230" y="200" width="58" height="58" as="geometry" />
        </mxCell>
        <mxCell id="gABLxwdRk9xFEGGP4eVl-7" value="" style="shape=image;html=1;verticalAlign=top;verticalLabelPosition=bottom;labelBackgroundColor=#ffffff;imageAspect=0;aspect=fixed;image=https://cdn2.iconfinder.com/data/icons/vivid/48/flame-128.png;dashed=1;fontSize=33;strokeColor=#000000;strokeWidth=4;fillColor=none;" vertex="1" parent="1">
          <mxGeometry x="500" y="200" width="58" height="58" as="geometry" />
        </mxCell>
        <mxCell id="gABLxwdRk9xFEGGP4eVl-8" value="" style="sketch=0;pointerEvents=1;shadow=0;dashed=0;html=1;strokeColor=none;fillColor=#505050;labelPosition=center;verticalLabelPosition=bottom;verticalAlign=top;outlineConnect=0;align=center;shape=mxgraph.office.devices.switch;fontSize=33;" vertex="1" parent="1">
          <mxGeometry x="400" y="221.5" width="130" height="25" as="geometry" />
        </mxCell>
        <mxCell id="gABLxwdRk9xFEGGP4eVl-9" value="" style="shape=image;html=1;verticalAlign=top;verticalLabelPosition=bottom;labelBackgroundColor=#ffffff;imageAspect=0;aspect=fixed;image=https://cdn2.iconfinder.com/data/icons/vivid/48/flame-128.png;dashed=1;fontSize=33;strokeColor=#000000;strokeWidth=4;fillColor=none;" vertex="1" parent="1">
          <mxGeometry x="810" y="200" width="58" height="58" as="geometry" />
        </mxCell>
        <mxCell id="gABLxwdRk9xFEGGP4eVl-10" value="" style="sketch=0;pointerEvents=1;shadow=0;dashed=0;html=1;strokeColor=none;fillColor=#505050;labelPosition=center;verticalLabelPosition=bottom;verticalAlign=top;outlineConnect=0;align=center;shape=mxgraph.office.devices.switch;fontSize=33;" vertex="1" parent="1">
          <mxGeometry x="710" y="221.5" width="130" height="25" as="geometry" />
        </mxCell>
        <mxCell id="zcApVKmX434kBujW9Qnr-1" value="" style="fontColor=#0066CC;verticalAlign=top;verticalLabelPosition=bottom;labelPosition=center;align=center;html=1;outlineConnect=0;fillColor=#CCCCCC;strokeColor=#6881B3;gradientColor=none;gradientDirection=north;strokeWidth=2;shape=mxgraph.networks.server;fontSize=22;" vertex="1" parent="1">
          <mxGeometry x="300" y="188" width="70" height="80" as="geometry" />
        </mxCell>
        <mxCell id="zcApVKmX434kBujW9Qnr-2" value="" style="sketch=0;points=[[0.015,0.015,0],[0.985,0.015,0],[0.985,0.985,0],[0.015,0.985,0],[0.25,0,0],[0.5,0,0],[0.75,0,0],[1,0.25,0],[1,0.5,0],[1,0.75,0],[0.75,1,0],[0.5,1,0],[0.25,1,0],[0,0.75,0],[0,0.5,0],[0,0.25,0]];verticalLabelPosition=bottom;html=1;verticalAlign=top;aspect=fixed;align=center;pointerEvents=1;shape=mxgraph.cisco19.rect;prIcon=secure_catalyst_switch_subdued;fillColor=#FAFAFA;strokeColor=#6696AB;" vertex="1" parent="1">
          <mxGeometry x="590" y="193.5" width="70" height="71" as="geometry" />
        </mxCell>
        <mxCell id="zcApVKmX434kBujW9Qnr-3" value="" style="sketch=0;aspect=fixed;html=1;points=[];align=center;image;fontSize=12;image=img/lib/mscae/Virtual_WANs.svg;" vertex="1" parent="1">
          <mxGeometry x="890" y="193" width="70" height="70" as="geometry" />
        </mxCell>
        <mxCell id="zcApVKmX434kBujW9Qnr-4" value="Anti-DDOS Controller" style="rounded=1;whiteSpace=wrap;html=1;fontSize=33;strokeColor=#000000;strokeWidth=4;fillColor=none;" vertex="1" parent="1">
          <mxGeometry x="390" y="30" width="200" height="90" as="geometry" />
        </mxCell>
        <mxCell id="zcApVKmX434kBujW9Qnr-5" value="" style="shape=image;html=1;verticalAlign=top;verticalLabelPosition=bottom;labelBackgroundColor=#ffffff;imageAspect=0;aspect=fixed;image=https://cdn2.iconfinder.com/data/icons/vivid/48/flame-128.png;dashed=1;fontSize=33;strokeColor=#000000;strokeWidth=4;fillColor=none;" vertex="1" parent="1">
          <mxGeometry x="560" width="58" height="58" as="geometry" />
        </mxCell>
        <mxCell id="zcApVKmX434kBujW9Qnr-6" value="" style="endArrow=classic;html=1;fontSize=33;strokeColor=#FF9933;strokeWidth=2;curved=1;exitX=0.46;exitY=1.056;exitDx=0;exitDy=0;exitPerimeter=0;" edge="1" parent="1" source="zcApVKmX434kBujW9Qnr-4">
          <mxGeometry width="50" height="50" relative="1" as="geometry">
            <mxPoint x="400" y="300" as="sourcePoint" />
            <mxPoint x="480" y="220" as="targetPoint" />
          </mxGeometry>
        </mxCell>
        <mxCell id="zcApVKmX434kBujW9Qnr-8" value="" style="endArrow=classic;html=1;fontSize=33;strokeColor=#FF9933;strokeWidth=2;curved=1;exitX=0.46;exitY=1.056;exitDx=0;exitDy=0;exitPerimeter=0;" edge="1" parent="1">
          <mxGeometry width="50" height="50" relative="1" as="geometry">
            <mxPoint x="382" y="79.99999999999997" as="sourcePoint" />
            <mxPoint x="190" y="210" as="targetPoint" />
          </mxGeometry>
        </mxCell>
        <mxCell id="zcApVKmX434kBujW9Qnr-9" value="" style="endArrow=classic;html=1;fontSize=33;strokeColor=#FF9933;strokeWidth=2;curved=1;exitX=0.46;exitY=1.056;exitDx=0;exitDy=0;exitPerimeter=0;" edge="1" parent="1">
          <mxGeometry width="50" height="50" relative="1" as="geometry">
            <mxPoint x="602" y="79.99999999999996" as="sourcePoint" />
            <mxPoint x="770" y="210" as="targetPoint" />
          </mxGeometry>
        </mxCell>
        <mxCell id="zcApVKmX434kBujW9Qnr-10" value="&lt;div style=&quot;font-size: 25px;&quot;&gt;Fronthaul/&lt;/div&gt;&lt;div style=&quot;font-size: 25px;&quot;&gt;Midhaul&lt;/div&gt;" style="text;html=1;align=center;verticalAlign=middle;resizable=0;points=[];autosize=1;strokeColor=none;fillColor=none;fontSize=25;" vertex="1" parent="1">
          <mxGeometry x="120" y="246.5" width="130" height="70" as="geometry" />
        </mxCell>
        <mxCell id="zcApVKmX434kBujW9Qnr-11" value="Backhaul" style="text;html=1;align=center;verticalAlign=middle;resizable=0;points=[];autosize=1;strokeColor=none;fillColor=none;fontSize=25;" vertex="1" parent="1">
          <mxGeometry x="415" y="261.5" width="120" height="40" as="geometry" />
        </mxCell>
        <mxCell id="zcApVKmX434kBujW9Qnr-12" value="&lt;div&gt;Centralized &lt;br&gt;&lt;/div&gt;&lt;div&gt;Packet Core&lt;/div&gt;" style="text;html=1;align=center;verticalAlign=middle;resizable=0;points=[];autosize=1;strokeColor=none;fillColor=none;fontSize=25;" vertex="1" parent="1">
          <mxGeometry x="550" y="261.5" width="150" height="70" as="geometry" />
        </mxCell>
        <mxCell id="zcApVKmX434kBujW9Qnr-13" value="Internet" style="text;html=1;align=center;verticalAlign=middle;resizable=0;points=[];autosize=1;strokeColor=none;fillColor=none;fontSize=25;" vertex="1" parent="1">
          <mxGeometry x="880" y="270" width="100" height="40" as="geometry" />
        </mxCell>
        <mxCell id="gABLxwdRk9xFEGGP4eVl-6" value="" style="sketch=0;pointerEvents=1;shadow=0;dashed=0;html=1;strokeColor=none;fillColor=#505050;labelPosition=center;verticalLabelPosition=bottom;verticalAlign=top;outlineConnect=0;align=center;shape=mxgraph.office.devices.switch;fontSize=33;" vertex="1" parent="1">
          <mxGeometry x="130" y="221.5" width="130" height="25" as="geometry" />
        </mxCell>
      </root>
    </mxGraphModel>
  </diagram>
  <diagram id="hYQTQ8FUwZPfwtz-89sE" name="13-virtualization">
    <mxGraphModel dx="760" dy="392" grid="0" gridSize="10" guides="1" tooltips="1" connect="1" arrows="1" fold="1" page="1" pageScale="1" pageWidth="850" pageHeight="1100" math="0" shadow="0">
      <root>
        <mxCell id="0" />
        <mxCell id="1" parent="0" />
        <mxCell id="N8-fGRchNbeYzo9rJWub-1" value="&lt;div&gt;AMF&lt;/div&gt;&lt;div&gt;container&lt;br&gt;&lt;/div&gt;" style="rounded=1;whiteSpace=wrap;html=1;fontSize=25;strokeColor=none;strokeWidth=4;fillColor=#f0a30a;fontColor=#000000;" vertex="1" parent="1">
          <mxGeometry x="100" y="220" width="120" height="60" as="geometry" />
        </mxCell>
        <mxCell id="N8-fGRchNbeYzo9rJWub-2" value="&lt;div&gt;SMF&lt;/div&gt;&lt;div&gt;container&lt;br&gt;&lt;/div&gt;" style="rounded=1;whiteSpace=wrap;html=1;fontSize=25;strokeColor=none;strokeWidth=4;fillColor=#3399FF;fontColor=#000000;" vertex="1" parent="1">
          <mxGeometry x="240" y="220" width="120" height="60" as="geometry" />
        </mxCell>
        <mxCell id="N8-fGRchNbeYzo9rJWub-3" value="&lt;div&gt;AMF&lt;/div&gt;&lt;div&gt;container&lt;br&gt;&lt;/div&gt;" style="rounded=1;whiteSpace=wrap;html=1;fontSize=25;strokeColor=none;strokeWidth=4;fillColor=#3399FF;fontColor=#000000;" vertex="1" parent="1">
          <mxGeometry x="380" y="220" width="120" height="60" as="geometry" />
        </mxCell>
        <mxCell id="N8-fGRchNbeYzo9rJWub-4" value="Kernel" style="rounded=0;whiteSpace=wrap;html=1;fontSize=25;strokeColor=none;strokeWidth=4;fillColor=#E6E6E6;" vertex="1" parent="1">
          <mxGeometry x="100" y="310" width="400" height="40" as="geometry" />
        </mxCell>
        <mxCell id="N8-fGRchNbeYzo9rJWub-5" value="Physical Infra (Worker)" style="rounded=0;whiteSpace=wrap;html=1;fontSize=25;strokeColor=none;strokeWidth=4;fillColor=#80FF00;" vertex="1" parent="1">
          <mxGeometry x="100" y="370" width="400" height="40" as="geometry" />
        </mxCell>
        <mxCell id="N8-fGRchNbeYzo9rJWub-6" value="" style="shape=image;html=1;verticalAlign=top;verticalLabelPosition=bottom;labelBackgroundColor=#ffffff;imageAspect=0;aspect=fixed;image=https://cdn2.iconfinder.com/data/icons/crystalproject/32x32/actions/button_cancel.png;fontSize=25;strokeColor=#000000;strokeWidth=4;fillColor=#80FF00;" vertex="1" parent="1">
          <mxGeometry x="530" y="214" width="32" height="32" as="geometry" />
        </mxCell>
        <mxCell id="N8-fGRchNbeYzo9rJWub-7" value="Kernel escape" style="text;html=1;align=center;verticalAlign=middle;resizable=0;points=[];autosize=1;strokeColor=none;fillColor=none;fontSize=25;" vertex="1" parent="1">
          <mxGeometry x="560" y="210" width="180" height="40" as="geometry" />
        </mxCell>
        <mxCell id="N8-fGRchNbeYzo9rJWub-8" value="" style="shape=image;html=1;verticalAlign=top;verticalLabelPosition=bottom;labelBackgroundColor=#ffffff;imageAspect=0;aspect=fixed;image=https://cdn2.iconfinder.com/data/icons/crystalproject/32x32/actions/button_cancel.png;fontSize=25;strokeColor=#000000;strokeWidth=4;fillColor=#80FF00;" vertex="1" parent="1">
          <mxGeometry x="530" y="254" width="32" height="32" as="geometry" />
        </mxCell>
        <mxCell id="N8-fGRchNbeYzo9rJWub-9" value="Lateral movement" style="text;html=1;align=center;verticalAlign=middle;resizable=0;points=[];autosize=1;strokeColor=none;fillColor=none;fontSize=25;" vertex="1" parent="1">
          <mxGeometry x="557" y="250" width="220" height="40" as="geometry" />
        </mxCell>
        <mxCell id="N8-fGRchNbeYzo9rJWub-10" value="" style="shape=image;html=1;verticalAlign=top;verticalLabelPosition=bottom;labelBackgroundColor=#ffffff;imageAspect=0;aspect=fixed;image=https://cdn2.iconfinder.com/data/icons/crystalproject/32x32/actions/button_cancel.png;fontSize=25;strokeColor=#000000;strokeWidth=4;fillColor=#80FF00;" vertex="1" parent="1">
          <mxGeometry x="530" y="294" width="32" height="32" as="geometry" />
        </mxCell>
        <mxCell id="N8-fGRchNbeYzo9rJWub-11" value="Insufficient policies" style="text;html=1;align=center;verticalAlign=middle;resizable=0;points=[];autosize=1;strokeColor=none;fillColor=none;fontSize=25;" vertex="1" parent="1">
          <mxGeometry x="562" y="290" width="220" height="40" as="geometry" />
        </mxCell>
        <mxCell id="ohyRNSIAq9kZVZOLDJm7-1" value="" style="shape=image;html=1;verticalAlign=top;verticalLabelPosition=bottom;labelBackgroundColor=#ffffff;imageAspect=0;aspect=fixed;image=https://cdn2.iconfinder.com/data/icons/crystalproject/32x32/actions/button_cancel.png;fontSize=25;strokeColor=#000000;strokeWidth=4;fillColor=#80FF00;" vertex="1" parent="1">
          <mxGeometry x="530" y="334" width="32" height="32" as="geometry" />
        </mxCell>
        <mxCell id="ohyRNSIAq9kZVZOLDJm7-2" value="Access management" style="text;html=1;align=center;verticalAlign=middle;resizable=0;points=[];autosize=1;strokeColor=none;fillColor=none;fontSize=25;" vertex="1" parent="1">
          <mxGeometry x="557" y="330" width="250" height="40" as="geometry" />
        </mxCell>
        <mxCell id="ohyRNSIAq9kZVZOLDJm7-5" value="" style="shape=image;html=1;verticalAlign=top;verticalLabelPosition=bottom;labelBackgroundColor=#ffffff;imageAspect=0;aspect=fixed;image=https://cdn2.iconfinder.com/data/icons/crystalproject/32x32/actions/button_cancel.png;fontSize=25;strokeColor=#000000;strokeWidth=4;fillColor=#80FF00;" vertex="1" parent="1">
          <mxGeometry x="528.5" y="370" width="32" height="32" as="geometry" />
        </mxCell>
        <mxCell id="ohyRNSIAq9kZVZOLDJm7-6" value="Resource exhaustion" style="text;html=1;align=center;verticalAlign=middle;resizable=0;points=[];autosize=1;strokeColor=none;fillColor=none;fontSize=25;" vertex="1" parent="1">
          <mxGeometry x="555.5" y="366" width="250" height="40" as="geometry" />
        </mxCell>
      </root>
    </mxGraphModel>
  </diagram>
</mxfile>
